<svg id="svg" version="1.1" xmlns="http://www.w3.org/2000/svg" xmlns:xlink="http://www.w3.org/1999/xlink" width="400" height="400" viewBox="0, 0, 400,400"><g id="svgg"><path id="path0" d="M186.010 0.244 C 175.652 1.126,165.972 2.516,157.395 4.354 L 153.411 5.208 153.152 9.599 C 152.834 15.004,152.223 32.036,151.709 49.852 C 151.497 57.222,151.149 67.507,150.937 72.709 C 149.295 113.045,149.472 165.613,151.287 176.749 C 153.018 187.365,154.794 194.857,157.126 201.379 C 158.887 206.305,164.177 216.982,165.329 217.938 C 165.665 218.217,166.741 220.059,167.721 222.031 C 170.642 227.913,171.767 228.624,175.309 226.829 C 179.488 224.711,182.321 220.286,186.662 209.101 C 187.411 207.170,188.298 205.061,188.632 204.414 C 188.967 203.767,190.353 200.288,191.712 196.682 C 193.072 193.075,194.631 189.242,195.178 188.163 C 195.725 187.084,196.645 184.784,197.222 183.051 C 197.800 181.319,199.306 177.507,200.570 174.581 C 201.834 171.655,203.273 168.197,203.768 166.897 C 204.263 165.596,205.143 163.468,205.724 162.167 C 208.253 156.506,208.927 154.717,210.840 148.571 C 211.954 144.995,213.551 140.030,214.389 137.537 C 215.228 135.044,216.378 131.143,216.944 128.867 C 217.511 126.591,218.678 122.554,219.537 119.895 C 221.722 113.134,225.331 100.653,226.459 95.961 C 226.980 93.793,227.680 91.044,228.016 89.852 C 228.352 88.660,229.402 84.759,230.349 81.182 C 231.296 77.606,232.443 73.616,232.897 72.315 C 233.352 71.015,234.350 67.468,235.115 64.433 C 235.880 61.399,237.024 57.143,237.658 54.975 C 238.708 51.384,240.643 43.560,243.311 32.118 C 244.326 27.765,245.116 22.323,246.115 12.808 C 246.411 9.990,246.768 7.140,246.908 6.475 L 247.164 5.265 239.740 3.815 C 224.285 0.796,219.458 0.331,202.167 0.201 C 194.256 0.142,186.985 0.161,186.010 0.244 M319.015 42.245 C 318.365 43.362,317.219 45.088,316.470 46.079 C 315.721 47.071,311.749 52.936,307.645 59.113 C 303.540 65.291,299.055 71.795,297.678 73.567 C 293.850 78.495,293.727 79.213,296.716 79.210 C 298.938 79.207,300.338 78.845,306.601 76.651 C 309.310 75.702,312.414 74.666,313.498 74.349 C 323.522 71.412,347.081 71.612,354.462 74.697 C 356.977 75.747,356.743 75.225,352.454 70.206 C 344.311 60.678,335.169 51.784,325.607 44.089 C 319.945 39.532,320.502 39.688,319.015 42.245 M306.601 94.581 C 305.409 95.029,303.635 95.577,302.660 95.799 C 293.859 97.798,288.256 103.687,282.282 117.214 C 280.647 120.914,278.419 125.714,277.330 127.882 C 274.668 133.180,272.341 138.444,269.317 146.010 C 267.930 149.478,266.429 153.071,265.979 153.994 C 264.228 157.594,261.525 165.485,256.566 181.478 C 255.222 185.813,253.259 192.108,252.203 195.468 C 249.311 204.672,248.293 209.326,248.958 210.312 C 249.185 210.649,250.742 210.371,254.782 209.271 C 257.814 208.445,262.424 207.282,265.025 206.686 C 267.626 206.090,270.906 205.161,272.315 204.621 C 274.512 203.779,275.832 203.598,281.576 203.345 C 290.170 202.966,294.360 201.770,299.771 198.152 C 331.424 176.986,357.899 120.637,342.941 106.269 C 337.051 100.611,334.240 98.864,326.897 96.297 C 320.026 93.895,310.555 93.094,306.601 94.581 M393.589 150.023 C 393.488 150.200,393.089 151.320,392.703 152.512 C 391.492 156.249,388.724 163.190,386.810 167.291 C 385.798 169.458,384.370 172.677,383.636 174.445 C 379.043 185.505,372.373 196.453,366.216 203.039 C 364.856 204.493,363.744 205.853,363.744 206.060 C 363.744 206.523,367.173 207.291,369.239 207.291 C 372.367 207.291,379.232 210.012,381.953 212.332 C 382.667 212.940,384.792 214.627,386.675 216.081 C 390.491 219.027,391.670 220.354,395.381 225.884 C 398.361 230.323,397.997 230.742,399.083 221.625 C 399.968 214.195,400.100 187.761,399.289 180.296 C 398.011 168.530,394.295 148.790,393.589 150.023 M95.567 164.586 C 94.049 165.366,90.997 167.068,88.784 168.369 C 84.618 170.817,81.022 172.520,75.271 174.768 C 71.048 176.418,61.245 180.674,52.808 184.520 C 49.232 186.150,45.110 187.876,43.650 188.354 C 39.587 189.685,39.265 190.270,39.530 195.862 C 39.916 204.016,42.077 218.889,44.397 229.360 C 45.141 232.719,46.005 236.621,46.316 238.030 C 48.048 245.867,50.471 256.016,51.351 259.113 C 51.904 261.064,53.179 265.600,54.183 269.194 C 55.187 272.787,57.081 278.551,58.391 282.002 C 59.702 285.452,61.194 289.379,61.707 290.728 C 62.220 292.076,63.241 294.382,63.977 295.851 C 64.713 297.320,65.446 298.966,65.605 299.507 C 65.871 300.413,69.003 307.000,73.100 315.271 C 75.457 320.029,79.480 327.111,82.651 332.087 C 84.146 334.434,85.761 337.036,86.239 337.868 C 87.000 339.192,94.339 349.032,94.958 349.557 C 95.086 349.665,96.071 350.818,97.148 352.118 C 100.470 356.130,111.989 367.333,116.407 370.849 C 123.273 376.314,137.081 383.054,141.410 383.054 C 141.858 383.054,144.583 383.661,147.467 384.402 C 152.987 385.821,159.062 386.598,164.699 386.606 C 166.558 386.609,171.005 386.872,174.581 387.192 C 178.158 387.512,184.010 387.777,187.586 387.782 C 195.216 387.792,197.064 388.349,199.446 391.353 C 200.184 392.284,201.821 394.123,203.084 395.439 C 204.346 396.756,205.676 398.341,206.039 398.962 L 206.700 400.092 211.626 399.833 C 266.106 396.963,318.492 370.634,353.511 328.521 C 360.434 320.195,361.121 319.109,358.030 321.378 C 356.497 322.503,350.206 325.645,348.177 326.298 C 347.310 326.577,345.808 327.270,344.839 327.836 C 343.870 328.403,341.830 329.324,340.307 329.882 C 338.783 330.441,334.966 331.883,331.823 333.087 C 322.467 336.673,320.034 337.458,310.542 339.954 C 301.897 342.227,300.789 342.466,294.187 343.478 C 289.239 344.236,285.677 344.492,277.635 344.667 C 270.726 344.817,266.748 345.068,265.419 345.438 C 264.335 345.740,262.828 346.156,262.069 346.363 C 260.397 346.819,252.621 349.583,245.911 352.107 C 243.202 353.126,239.731 354.295,238.198 354.705 C 236.665 355.115,234.271 355.877,232.878 356.399 C 230.707 357.211,225.872 358.448,214.048 361.217 C 212.670 361.539,209.390 362.138,206.757 362.547 C 204.124 362.957,199.335 363.750,196.114 364.309 C 189.707 365.423,189.653 365.419,184.250 363.495 C 181.306 362.447,180.378 361.883,180.710 361.347 C 181.339 360.329,187.848 358.912,196.059 358.006 C 205.243 356.992,207.009 356.683,215.764 354.559 C 255.227 344.981,268.410 337.946,292.122 313.811 C 307.193 298.471,318.858 276.180,323.789 253.300 C 326.887 238.928,326.237 236.706,317.241 230.904 C 315.616 229.855,313.495 228.425,312.529 227.725 C 311.562 227.025,310.083 226.215,309.241 225.925 C 308.399 225.635,307.018 225.044,306.172 224.613 C 302.943 222.965,289.446 219.900,284.248 219.634 C 270.387 218.923,250.275 223.548,250.248 227.452 C 250.247 227.595,249.516 228.637,248.623 229.767 C 247.729 230.897,246.289 233.085,245.421 234.630 C 242.406 239.996,229.359 259.531,224.989 265.222 C 223.241 267.498,220.861 270.778,219.700 272.512 C 218.538 274.246,216.674 276.995,215.558 278.621 C 211.619 284.358,209.326 288.405,202.946 300.887 C 195.511 315.430,186.075 334.331,181.697 343.448 C 173.741 360.017,173.171 360.934,171.272 360.212 C 168.791 359.269,163.340 352.140,161.017 346.798 C 160.404 345.389,158.762 341.779,157.368 338.775 C 155.975 335.771,154.310 331.958,153.668 330.302 C 153.026 328.646,152.066 326.315,151.535 325.123 C 151.003 323.931,149.839 321.182,148.946 319.015 C 148.054 316.847,146.198 312.414,144.821 309.163 C 143.444 305.911,141.609 301.478,140.744 299.310 C 139.878 297.143,138.348 293.419,137.343 291.034 C 136.337 288.650,134.985 285.288,134.338 283.562 C 133.690 281.837,133.019 280.241,132.846 280.015 C 132.673 279.790,132.080 278.453,131.527 277.044 C 129.468 271.797,127.698 267.871,126.583 266.080 C 125.951 265.066,124.674 262.818,123.743 261.084 C 122.813 259.350,121.282 256.747,120.341 255.299 C 118.110 251.867,116.458 248.987,115.184 246.305 C 114.617 245.113,113.760 243.509,113.280 242.740 C 112.799 241.971,112.042 240.109,111.596 238.602 C 111.151 237.095,110.526 235.153,110.208 234.286 C 109.266 231.715,106.095 212.698,103.604 194.680 C 103.409 193.271,102.991 189.281,102.676 185.813 C 100.347 160.248,100.884 161.854,95.567 164.586 " stroke="none" fill="#fbfafa" fill-rule="evenodd"></path><path id="path1" d="M93.793 30.166 C 22.730 74.988,-12.866 158.472,3.987 240.788 C 22.433 330.889,101.949 397.726,193.263 399.884 C 205.516 400.174,206.446 399.642,202.069 394.851 C 200.931 393.605,199.566 392.012,199.036 391.310 C 197.152 388.815,195.093 388.294,186.010 388.014 C 181.567 387.876,175.892 387.583,173.399 387.362 C 170.906 387.141,165.409 386.794,161.182 386.592 C 153.868 386.241,151.030 385.893,148.373 385.022 C 147.722 384.808,145.130 384.207,142.612 383.684 C 133.501 381.795,122.138 376.674,117.438 372.338 C 116.895 371.838,115.476 370.681,114.285 369.768 C 112.019 368.031,97.446 353.734,94.861 350.712 C 94.039 349.751,92.937 348.482,92.413 347.891 C 91.888 347.300,91.178 346.274,90.836 345.612 C 90.493 344.950,90.043 344.513,89.835 344.641 C 89.628 344.769,89.458 344.638,89.458 344.350 C 89.458 344.061,88.924 343.176,88.270 342.384 C 87.617 341.591,86.496 339.911,85.780 338.649 C 84.004 335.521,83.402 334.497,83.053 334.010 C 82.890 333.782,82.107 332.621,81.313 331.429 C 80.520 330.236,79.722 329.202,79.541 329.130 C 79.360 329.057,79.212 328.738,79.212 328.420 C 79.212 327.852,77.671 324.727,77.199 324.336 C 76.803 324.009,73.803 318.474,71.903 314.566 C 70.758 312.210,69.963 311.003,69.675 311.182 C 69.378 311.365,69.312 311.236,69.479 310.799 C 69.818 309.915,69.117 308.384,67.308 306.057 C 66.385 304.869,65.813 303.708,65.813 303.021 C 65.813 301.700,65.180 300.147,63.979 298.517 C 63.497 297.864,63.016 296.848,62.909 296.258 C 62.657 294.865,62.343 294.384,61.686 294.384 C 61.362 294.384,61.053 293.729,60.897 292.709 C 60.578 290.617,59.947 288.876,59.184 287.980 C 58.861 287.601,58.723 287.291,58.878 287.291 C 59.032 287.291,58.882 286.897,58.545 286.415 C 58.207 285.933,57.931 285.119,57.931 284.606 C 57.931 283.447,55.567 276.501,55.112 276.322 C 54.928 276.250,54.775 275.806,54.770 275.337 C 54.766 274.867,54.306 272.975,53.749 271.133 C 53.193 269.291,52.571 267.074,52.368 266.207 C 51.899 264.205,50.847 260.896,50.396 260.005 C 50.205 259.629,50.049 259.053,50.049 258.725 C 50.049 258.396,49.892 258.128,49.700 258.128 C 49.263 258.128,48.895 256.416,48.515 252.611 C 48.352 250.985,48.107 249.389,47.970 249.064 C 47.832 248.739,47.641 247.675,47.545 246.700 C 47.449 245.724,47.111 244.128,46.795 243.153 C 46.479 242.177,46.002 240.138,45.735 238.621 C 45.468 237.103,45.020 235.153,44.740 234.286 C 43.758 231.254,42.088 221.713,40.996 212.908 C 40.586 209.603,40.155 206.589,40.038 206.208 C 39.921 205.828,39.719 204.453,39.589 203.153 C 39.016 197.397,38.824 196.453,38.227 196.453 C 37.901 196.453,37.629 196.719,37.621 197.044 C 37.613 197.369,37.422 197.957,37.197 198.350 C 36.510 199.549,35.594 198.143,36.198 196.817 C 36.755 195.595,36.791 193.498,36.256 193.498 C 36.039 193.498,35.862 192.877,35.862 192.118 C 35.862 190.646,34.895 190.135,34.557 191.429 C 34.422 191.948,34.366 191.899,34.331 191.232 C 34.306 190.744,34.091 190.345,33.854 190.345 C 33.572 190.345,33.493 189.692,33.626 188.473 C 33.738 187.443,34.036 184.739,34.289 182.463 C 34.545 180.154,34.645 176.410,34.516 173.990 C 34.389 171.606,34.179 167.261,34.049 164.335 C 33.920 161.409,33.654 158.846,33.459 158.640 C 32.967 158.122,33.011 155.665,33.511 155.665 C 33.781 155.665,33.901 152.830,33.866 147.291 C 33.792 135.667,33.905 135.483,44.729 129.632 C 52.495 125.433,56.808 123.180,60.167 121.564 C 62.156 120.607,65.141 119.022,66.801 118.041 C 68.461 117.059,69.937 116.252,70.082 116.247 C 70.226 116.243,70.788 115.892,71.330 115.468 C 71.872 115.044,72.554 114.693,72.846 114.689 C 73.137 114.684,73.847 114.351,74.422 113.948 C 74.997 113.546,77.721 112.046,80.475 110.614 C 83.229 109.183,86.235 107.537,87.154 106.957 C 88.074 106.376,89.634 105.526,90.620 105.068 C 93.619 103.675,96.092 101.926,96.532 100.887 C 96.835 100.171,97.464 27.447,97.162 28.017 C 97.151 28.036,95.635 29.003,93.793 30.166 M287.882 80.572 C 284.847 81.075,280.236 81.783,277.635 82.143 C 275.034 82.504,271.488 83.163,269.754 83.608 C 268.020 84.052,265.714 84.552,264.631 84.717 C 262.908 84.981,255.034 86.673,247.094 88.486 C 245.685 88.808,241.861 89.935,238.596 90.990 C 227.208 94.671,226.948 95.023,221.869 113.695 C 221.397 115.429,220.490 118.340,219.853 120.164 C 219.216 121.988,217.995 126.244,217.140 129.622 C 215.218 137.210,209.066 155.938,207.096 160.197 C 206.294 161.931,204.877 165.300,203.947 167.685 C 203.017 170.069,201.541 173.616,200.668 175.567 C 199.794 177.517,198.459 180.887,197.702 183.054 C 196.944 185.222,195.756 188.235,195.061 189.751 C 194.365 191.267,192.942 194.845,191.897 197.702 C 190.852 200.558,189.656 203.574,189.238 204.403 C 188.820 205.233,187.844 207.507,187.069 209.458 C 182.332 221.380,180.233 224.547,175.189 227.380 C 172.132 229.097,169.992 227.699,167.452 222.323 C 166.567 220.449,165.428 218.473,164.922 217.931 C 161.250 214.003,154.793 197.875,152.910 187.929 C 152.485 185.681,151.887 182.690,151.581 181.281 C 151.276 179.872,150.911 177.655,150.771 176.355 C 150.631 175.054,150.354 172.660,150.155 171.034 C 149.656 166.962,148.626 121.617,148.816 112.118 C 148.849 110.479,148.770 110.056,148.560 110.739 C 148.393 111.281,148.238 113.099,148.217 114.778 C 148.178 117.763,148.155 117.833,147.192 117.833 C 146.150 117.833,145.661 120.601,146.601 121.182 C 146.818 121.316,146.995 122.036,146.995 122.782 C 146.995 123.528,146.818 124.138,146.601 124.138 C 146.384 124.138,146.207 123.429,146.207 122.562 L 146.207 120.985 144.631 120.985 L 143.054 120.985 143.054 122.562 L 143.054 124.138 141.478 124.138 C 140.164 124.138,139.901 124.269,139.901 124.926 C 139.901 125.583,139.639 125.714,138.325 125.714 L 136.749 125.714 136.749 127.291 C 136.749 128.604,136.617 128.867,135.961 128.867 C 135.435 128.867,135.172 129.130,135.172 129.655 C 135.172 130.312,134.910 130.443,133.596 130.443 C 132.282 130.443,132.020 130.575,132.020 131.232 C 132.020 131.932,131.757 132.020,129.655 132.020 C 127.553 132.020,127.291 132.107,127.291 132.808 C 127.291 133.465,127.028 133.596,125.714 133.596 C 124.401 133.596,124.138 133.727,124.138 134.384 C 124.138 134.910,123.875 135.172,123.350 135.172 C 122.842 135.172,122.562 135.435,122.562 135.911 C 122.562 136.660,121.229 137.143,119.163 137.143 C 118.273 137.143,118.225 137.274,118.197 139.803 C 118.141 144.962,117.831 145.982,116.256 146.207 L 114.877 146.404 114.520 149.458 C 114.169 152.469,114.148 152.512,113.043 152.512 L 111.921 152.512 111.921 155.297 C 111.921 158.240,111.480 159.606,110.528 159.606 C 110.211 159.606,109.951 159.783,109.951 160.000 C 109.951 160.217,109.720 160.394,109.438 160.394 C 108.713 160.394,106.805 161.321,106.801 161.675 C 106.799 161.837,106.443 161.970,106.010 161.970 C 105.572 161.970,105.222 161.708,105.222 161.379 C 105.222 160.753,102.864 160.514,102.304 161.084 C 102.145 161.246,100.955 161.557,99.660 161.773 C 97.109 162.200,96.239 163.031,98.552 162.831 C 100.902 162.629,101.204 163.584,102.083 173.990 C 103.308 188.496,103.693 192.199,104.810 200.197 C 108.053 223.413,111.284 239.021,113.613 242.725 C 114.092 243.485,114.752 244.735,115.081 245.502 C 115.953 247.537,117.800 250.801,119.647 253.572 C 121.537 256.406,123.014 258.933,124.796 262.381 C 125.501 263.745,126.401 265.273,126.797 265.776 C 127.193 266.279,127.814 267.380,128.177 268.222 C 131.050 274.881,134.737 283.723,134.980 284.532 C 135.142 285.074,135.587 286.227,135.968 287.094 C 136.350 287.961,136.937 289.379,137.274 290.246 C 137.610 291.113,138.694 293.663,139.682 295.913 C 140.670 298.162,141.478 300.149,141.478 300.327 C 141.478 300.623,145.607 310.493,150.039 320.788 C 151.018 323.064,152.752 327.232,153.890 330.049 C 155.029 332.867,157.203 337.833,158.722 341.084 C 160.241 344.335,161.747 347.616,162.068 348.374 C 162.388 349.133,163.381 350.729,164.273 351.921 C 165.166 353.113,166.210 354.514,166.593 355.033 C 168.275 357.311,170.259 358.905,171.272 358.794 C 172.490 358.660,172.135 359.142,174.157 354.877 C 175.081 352.926,176.264 350.766,176.786 350.076 C 177.307 349.386,177.734 348.697,177.734 348.546 C 177.734 348.395,178.355 347.408,179.113 346.352 C 179.872 345.296,180.493 344.310,180.493 344.162 C 180.493 343.815,188.660 327.645,190.407 324.532 C 191.870 321.926,196.865 311.872,198.239 308.768 C 199.669 305.536,207.604 289.840,211.557 282.423 C 212.464 280.721,214.014 278.150,215.002 276.709 C 215.990 275.268,217.920 272.459,219.292 270.467 C 220.664 268.475,222.373 265.815,223.089 264.556 C 223.805 263.296,225.254 261.073,226.309 259.614 C 227.365 258.156,229.325 255.114,230.666 252.854 C 232.007 250.595,234.212 246.931,235.567 244.713 C 236.921 242.494,238.030 240.548,238.030 240.388 C 238.030 240.228,238.283 239.886,238.592 239.629 C 239.317 239.028,241.182 235.468,241.182 234.687 C 241.182 234.358,241.376 234.133,241.613 234.187 C 241.850 234.241,242.249 233.932,242.500 233.500 C 242.750 233.068,243.621 231.730,244.433 230.527 C 245.246 229.324,245.911 228.049,245.911 227.694 C 245.911 227.339,246.240 226.944,246.642 226.816 C 247.043 226.689,247.843 226.056,248.418 225.411 C 249.093 224.653,249.848 224.234,250.545 224.230 C 252.181 224.221,252.947 223.608,251.784 223.239 C 249.784 222.604,247.651 220.296,249.064 220.296 C 249.281 220.296,249.458 219.966,249.458 219.563 C 249.458 218.859,252.014 218.240,254.758 218.277 C 255.831 218.292,258.166 217.130,257.907 216.710 C 257.789 216.520,257.945 216.461,258.254 216.579 C 258.562 216.697,259.102 216.507,259.454 216.155 C 259.805 215.804,260.281 215.633,260.512 215.776 C 261.153 216.172,262.857 215.621,262.857 215.017 C 262.857 214.388,264.557 213.990,267.241 213.990 C 268.616 213.990,269.163 213.835,269.163 213.444 C 269.163 213.094,269.836 212.796,271.034 212.617 C 272.064 212.463,273.053 212.132,273.232 211.883 C 273.474 211.545,273.609 211.555,273.757 211.921 C 273.904 212.282,275.447 212.415,279.540 212.418 C 285.963 212.423,288.079 212.679,288.079 213.451 C 288.079 213.816,288.580 213.990,289.629 213.990 C 290.832 213.990,291.234 214.166,291.429 214.778 C 291.615 215.365,292.025 215.567,293.031 215.567 C 294.122 215.567,294.384 215.720,294.384 216.355 C 294.384 216.793,294.647 217.143,294.975 217.143 C 295.685 217.143,295.751 217.983,295.094 218.640 C 294.726 219.008,294.726 219.113,295.094 219.113 C 295.354 219.113,295.567 219.379,295.567 219.704 C 295.567 220.030,295.354 220.296,295.094 220.296 C 293.746 220.296,295.875 221.102,300.192 222.226 C 310.872 225.008,323.427 233.228,325.512 238.804 C 326.351 241.047,326.454 241.158,327.436 240.883 C 329.350 240.345,334.500 240.594,335.262 241.262 C 335.856 241.783,337.627 242.796,342.355 245.320 C 346.956 247.776,356.591 257.098,358.851 261.281 C 362.022 267.148,363.089 275.719,361.249 280.542 C 360.887 281.491,360.591 282.766,360.591 283.376 C 360.591 283.986,360.434 284.583,360.242 284.701 C 360.050 284.820,359.769 285.584,359.617 286.400 C 359.143 288.955,354.089 298.369,351.417 301.675 C 350.892 302.325,350.244 303.270,349.979 303.775 C 348.266 307.030,343.187 311.263,340.131 311.982 C 338.940 312.262,335.838 313.731,333.596 315.076 C 332.729 315.596,330.778 316.667,329.261 317.456 C 327.744 318.245,326.325 319.022,326.108 319.184 C 325.188 319.868,320.343 321.619,317.241 322.388 C 315.399 322.845,313.615 323.514,313.276 323.875 C 312.401 324.808,310.198 325.836,308.498 326.103 C 307.279 326.295,307.025 326.504,306.921 327.402 C 306.819 328.291,306.580 328.494,305.517 328.596 C 303.434 328.797,303.528 332.217,305.616 332.217 C 306.966 332.217,306.995 332.183,306.995 330.617 L 306.995 329.016 308.473 329.139 C 309.870 329.254,309.957 329.341,310.073 330.739 C 310.169 331.897,310.361 332.217,310.960 332.217 C 311.452 332.217,311.724 332.487,311.724 332.978 C 311.724 333.457,312.041 333.785,312.580 333.864 C 315.679 334.320,313.384 335.030,306.882 335.626 C 304.771 335.820,304.118 336.037,303.788 336.653 C 303.488 337.213,303.491 337.360,303.799 337.170 C 304.079 336.997,304.133 337.151,303.956 337.615 C 303.476 338.867,302.125 339.678,300.493 339.694 C 298.607 339.712,295.961 340.396,295.961 340.865 C 295.961 341.222,291.814 342.052,288.867 342.286 C 287.892 342.364,286.384 342.605,285.517 342.824 C 284.555 343.066,283.403 343.086,282.562 342.875 C 279.639 342.142,271.188 341.943,270.209 342.583 C 269.710 342.911,268.871 343.256,268.345 343.352 C 264.636 344.027,287.321 343.738,291.823 343.054 C 293.773 342.757,296.167 342.413,297.143 342.289 C 298.118 342.165,300.867 341.605,303.251 341.045 C 305.635 340.484,308.207 339.882,308.966 339.707 C 311.746 339.065,316.707 337.654,318.818 336.904 C 320.010 336.481,321.820 335.869,322.840 335.545 C 323.860 335.220,324.802 334.782,324.932 334.571 C 325.063 334.360,325.605 334.187,326.137 334.187 C 326.669 334.187,327.412 334.026,327.789 333.830 C 329.357 333.010,338.860 329.318,340.493 328.894 C 341.034 328.753,342.808 328.034,344.433 327.295 C 346.059 326.557,349.251 325.126,351.527 324.116 C 357.283 321.560,361.005 319.133,362.577 316.908 C 379.853 292.464,390.932 266.815,396.479 238.424 C 397.986 230.706,397.947 230.478,394.106 224.760 C 388.870 216.967,377.976 209.064,371.026 208.020 C 369.513 207.792,366.946 207.391,365.320 207.128 L 362.365 206.650 365.139 203.719 C 371.481 197.021,379.390 184.325,383.054 174.960 C 383.517 173.776,384.612 171.300,385.488 169.458 C 389.722 160.549,393.487 149.978,393.197 147.816 C 392.866 145.345,390.040 136.679,389.730 137.182 C 389.575 137.433,389.253 137.518,389.015 137.370 C 388.777 137.223,387.959 137.275,387.197 137.485 C 386.085 137.792,385.813 137.758,385.813 137.308 C 385.813 136.887,385.228 136.749,383.448 136.749 C 381.654 136.749,381.084 136.612,381.084 136.182 C 381.084 134.944,355.070 134.690,354.310 135.921 C 354.054 136.335,353.419 136.416,351.763 136.245 C 350.421 136.107,349.557 136.170,349.557 136.406 C 349.557 136.620,349.391 136.693,349.188 136.568 C 348.579 136.191,345.301 139.823,345.009 141.198 C 344.861 141.894,344.139 143.462,343.405 144.682 C 342.670 145.903,342.069 147.085,342.069 147.309 C 342.069 147.534,341.925 147.777,341.750 147.849 C 341.574 147.921,340.989 148.867,340.449 149.951 C 339.908 151.034,338.963 152.710,338.349 153.674 C 337.734 154.638,336.940 156.057,336.584 156.827 C 336.052 157.978,333.903 161.855,332.020 165.060 C 331.803 165.428,331.106 166.613,330.471 167.693 C 328.305 171.373,318.319 183.404,314.286 187.192 C 309.675 191.522,308.467 192.566,305.136 195.103 C 298.336 200.280,291.579 203.298,285.320 203.951 C 281.909 204.307,276.403 205.637,274.631 206.533 C 273.058 207.329,266.028 209.458,259.898 210.996 C 255.805 212.023,253.399 212.996,253.399 213.625 C 253.399 213.826,253.124 213.990,252.788 213.990 C 252.452 213.990,251.699 214.231,251.113 214.525 C 250.528 214.819,249.485 215.167,248.795 215.298 L 247.541 215.536 247.729 211.906 C 248.060 205.493,249.465 200.115,254.853 184.631 C 255.833 181.813,257.306 177.291,258.126 174.581 C 260.569 166.507,264.304 155.828,266.032 151.978 C 266.921 149.996,267.797 148.020,267.977 147.586 C 268.158 147.153,269.146 144.759,270.174 142.266 C 272.301 137.104,276.390 127.954,279.420 121.576 C 280.553 119.192,282.167 115.680,283.007 113.771 C 287.145 104.377,294.197 97.741,302.483 95.445 C 304.003 95.024,306.074 94.302,307.085 93.842 C 308.095 93.382,309.287 93.005,309.732 93.005 C 310.754 93.005,310.761 92.580,309.754 91.717 C 309.320 91.346,308.966 90.790,308.966 90.482 C 308.966 90.174,308.450 89.489,307.820 88.958 C 307.190 88.428,306.279 87.219,305.796 86.272 C 303.188 81.159,302.507 80.562,298.943 80.263 C 297.411 80.135,295.537 79.946,294.778 79.843 C 294.020 79.740,290.916 80.069,287.882 80.572 M148.428 98.030 C 148.567 101.877,148.745 105.099,148.823 105.189 C 148.901 105.279,148.966 102.131,148.966 98.194 C 148.966 93.669,148.820 91.034,148.570 91.034 C 148.311 91.034,148.262 93.447,148.428 98.030 M94.007 164.063 C 93.038 164.652,92.217 165.394,92.217 165.680 C 92.217 166.094,94.941 164.599,95.143 164.073 C 95.387 163.438,95.039 163.434,94.007 164.063 M268.276 218.983 C 266.615 219.436,267.774 219.929,270.246 219.821 C 271.762 219.755,272.867 219.535,272.814 219.310 C 272.717 218.896,269.456 218.661,268.276 218.983 M263.350 220.567 C 263.729 220.666,264.350 220.666,264.729 220.567 C 265.108 220.468,264.798 220.387,264.039 220.387 C 263.281 220.387,262.970 220.468,263.350 220.567 M255.369 222.660 C 254.586 223.166,255.571 223.166,256.749 222.660 L 257.537 222.321 256.749 222.300 C 256.315 222.288,255.695 222.450,255.369 222.660 M322.365 328.670 C 322.365 328.898,321.117 329.064,319.409 329.064 C 317.701 329.064,316.453 328.898,316.453 328.670 C 316.453 328.442,317.701 328.276,319.409 328.276 C 321.117 328.276,322.365 328.442,322.365 328.670 M297.931 336.355 C 297.931 336.749,298.325 336.946,299.113 336.946 C 299.901 336.946,300.296 336.749,300.296 336.355 C 300.296 335.961,299.901 335.764,299.113 335.764 C 298.325 335.764,297.931 335.961,297.931 336.355 M309.754 336.552 C 309.754 336.768,309.488 336.946,309.163 336.946 C 308.837 336.946,308.571 336.768,308.571 336.552 C 308.571 336.335,308.837 336.158,309.163 336.158 C 309.488 336.158,309.754 336.335,309.754 336.552 M230.640 352.593 C 230.153 352.687,229.754 352.891,229.754 353.047 C 229.754 353.575,231.275 353.448,231.746 352.880 C 232.004 352.569,232.060 352.339,231.871 352.369 C 231.682 352.398,231.128 352.499,230.640 352.593 " stroke="none" fill="#f96a23" fill-rule="evenodd"></path><path id="path2" d="M247.488 8.571 C 247.488 9.034,247.686 9.534,247.928 9.684 C 248.565 10.077,248.184 16.516,247.499 16.939 C 246.795 17.374,246.717 21.204,247.407 21.468 C 247.781 21.612,247.900 21.218,247.853 19.994 C 247.817 19.076,247.982 17.527,248.219 16.552 C 248.852 13.949,248.766 9.422,248.066 8.496 C 247.499 7.746,247.488 7.748,247.488 8.571 M265.864 12.116 L 262.762 12.252 263.011 13.811 C 263.246 15.279,263.203 15.369,262.271 15.369 C 261.544 15.369,261.281 15.579,261.281 16.158 C 261.281 16.683,261.018 16.946,260.493 16.946 C 259.967 16.946,259.704 17.209,259.704 17.734 C 259.704 18.259,259.442 18.522,258.916 18.522 C 258.391 18.522,258.128 18.785,258.128 19.310 C 258.128 19.967,257.865 20.099,256.552 20.099 L 254.975 20.099 254.975 21.872 C 254.975 23.383,255.092 23.645,255.764 23.645 C 256.201 23.645,256.552 23.908,256.552 24.236 C 256.552 24.565,256.201 24.828,255.764 24.828 C 255.248 24.828,254.975 25.090,254.975 25.588 C 254.975 26.064,254.643 26.413,254.089 26.520 L 253.202 26.691 254.089 26.744 C 255.191 26.811,255.284 27.980,254.187 27.980 C 253.530 27.980,253.399 28.243,253.399 29.557 L 253.399 31.133 251.823 31.133 C 250.509 31.133,250.246 31.264,250.246 31.921 C 250.246 32.359,249.984 32.709,249.655 32.709 C 249.330 32.709,249.064 32.887,249.064 33.103 C 249.064 33.320,249.330 33.498,249.655 33.498 C 249.980 33.498,250.246 33.320,250.246 33.103 C 250.246 32.887,250.956 32.709,251.823 32.709 C 253.136 32.709,253.399 32.578,253.399 31.921 C 253.399 30.840,256.142 30.743,256.185 31.823 C 256.209 32.412,256.262 32.398,256.552 31.724 C 256.811 31.121,256.897 31.086,256.918 31.575 C 256.953 32.384,259.723 32.695,264.326 32.408 L 267.586 32.204 267.586 30.880 L 267.586 29.557 269.951 29.557 C 272.053 29.557,272.315 29.469,272.315 28.768 C 272.315 28.243,272.578 27.980,273.103 27.980 C 273.760 27.980,273.892 27.718,273.892 26.404 C 273.892 25.090,274.023 24.828,274.680 24.828 C 275.205 24.828,275.468 24.565,275.468 24.039 C 275.468 23.514,275.731 23.251,276.256 23.251 C 276.782 23.251,277.044 22.989,277.044 22.463 C 277.044 21.938,277.307 21.675,277.833 21.675 C 278.270 21.675,278.621 21.412,278.621 21.084 C 278.621 20.673,279.034 20.493,279.977 20.493 C 280.723 20.493,281.442 20.315,281.576 20.099 C 281.710 19.882,282.164 19.704,282.585 19.704 C 283.006 19.704,283.350 19.453,283.350 19.146 C 283.350 18.839,283.548 18.522,283.790 18.441 C 284.208 18.302,281.186 16.889,274.761 14.220 C 273.181 13.563,271.993 13.196,272.122 13.405 C 272.253 13.617,272.086 13.680,271.745 13.549 C 271.408 13.420,271.133 13.149,271.133 12.945 C 271.133 12.742,270.911 12.605,270.640 12.640 C 269.524 12.785,268.737 12.586,268.966 12.217 C 269.099 12.000,269.154 11.858,269.087 11.902 C 269.020 11.946,267.570 12.042,265.864 12.116 M256.615 18.424 C 256.675 19.845,256.684 19.854,256.835 18.644 C 256.970 17.568,257.174 17.364,258.250 17.229 C 259.460 17.078,259.451 17.070,258.030 17.009 C 256.563 16.946,256.552 16.957,256.615 18.424 M258.128 21.084 C 258.128 21.409,257.862 21.675,257.537 21.675 C 257.212 21.675,256.946 21.409,256.946 21.084 C 256.946 20.759,257.212 20.493,257.537 20.493 C 257.862 20.493,258.128 20.759,258.128 21.084 M261.281 21.084 C 261.281 21.409,261.015 21.675,260.690 21.675 C 260.365 21.675,260.099 21.409,260.099 21.084 C 260.099 20.759,260.365 20.493,260.690 20.493 C 261.015 20.493,261.281 20.759,261.281 21.084 M245.911 23.448 C 245.911 24.036,246.081 24.375,246.305 24.236 C 246.522 24.102,246.700 23.748,246.700 23.448 C 246.700 23.149,246.522 22.794,246.305 22.660 C 246.081 22.521,245.911 22.861,245.911 23.448 M256.946 37.438 C 256.946 38.227,257.143 38.621,257.537 38.621 C 257.931 38.621,258.128 38.227,258.128 37.438 C 258.128 36.650,257.931 36.256,257.537 36.256 C 257.143 36.256,256.946 36.650,256.946 37.438 M247.193 43.941 C 247.197 44.808,247.278 45.116,247.372 44.626 C 247.467 44.136,247.463 43.426,247.364 43.050 C 247.266 42.673,247.189 43.074,247.193 43.941 M245.256 48.382 C 245.004 48.543,244.692 50.092,244.562 51.825 C 244.432 53.558,244.225 56.350,244.103 58.030 C 243.909 60.704,243.787 61.084,243.123 61.084 C 242.501 61.084,242.365 61.367,242.365 62.660 C 242.365 63.974,242.233 64.236,241.576 64.236 C 240.920 64.236,240.788 64.499,240.788 65.813 C 240.788 68.141,238.839 68.237,238.780 65.911 C 238.759 65.099,238.524 63.547,238.258 62.463 C 237.782 60.523,237.776 60.550,237.885 64.151 C 237.947 66.204,237.843 67.714,237.647 67.593 C 237.123 67.270,236.889 68.464,236.882 71.495 C 236.878 73.267,236.698 74.344,236.369 74.570 C 236.009 74.818,236.085 74.884,236.633 74.797 C 237.076 74.727,237.502 74.258,237.634 73.693 C 237.870 72.689,240.466 71.066,240.722 71.762 C 241.118 72.834,242.365 72.058,242.365 70.739 C 242.365 69.699,242.534 69.353,243.054 69.332 C 243.644 69.308,243.630 69.255,242.956 68.966 C 242.412 68.732,242.354 68.618,242.770 68.599 C 244.125 68.537,244.598 67.221,244.844 62.828 C 245.054 59.081,245.190 58.452,245.893 57.981 C 246.336 57.684,246.717 57.152,246.739 56.799 C 246.761 56.432,246.913 56.579,247.094 57.143 C 247.367 57.996,247.414 57.913,247.448 56.532 C 247.470 55.654,247.324 54.767,247.124 54.562 C 246.612 54.034,246.411 48.509,246.897 48.306 C 247.113 48.215,246.936 48.130,246.502 48.116 C 246.069 48.102,245.508 48.222,245.256 48.382 M253.399 57.734 L 253.399 60.690 254.975 60.690 L 256.552 60.690 256.552 57.734 L 256.552 54.778 254.975 54.778 L 253.399 54.778 253.399 57.734 M244.607 60.197 C 244.508 60.576,244.426 60.266,244.426 59.507 C 244.426 58.749,244.508 58.438,244.607 58.818 C 244.706 59.197,244.706 59.818,244.607 60.197 M348.374 76.883 C 347.616 77.100,346.605 77.713,346.127 78.245 C 345.650 78.777,344.985 79.212,344.649 79.212 C 344.314 79.212,344.039 79.389,344.039 79.606 C 344.039 79.823,344.227 80.000,344.457 80.000 C 345.847 80.000,344.593 82.959,343.153 83.078 C 341.716 83.197,341.675 83.243,341.675 84.753 C 341.675 85.607,341.498 86.305,341.281 86.305 C 341.062 86.305,340.887 87.356,340.887 88.670 C 340.887 89.984,340.712 91.034,340.493 91.034 C 340.276 91.034,340.099 91.280,340.099 91.580 C 340.099 91.879,339.744 92.218,339.310 92.331 C 338.687 92.494,338.522 92.868,338.522 94.118 C 338.522 96.604,338.282 96.939,336.819 96.493 C 336.130 96.283,335.123 96.028,334.581 95.926 C 334.039 95.824,333.330 95.631,333.005 95.496 C 332.396 95.244,329.386 94.713,326.357 94.322 C 324.728 94.112,323.952 94.941,325.539 95.195 C 326.351 95.325,329.710 96.699,332.020 97.846 C 333.103 98.384,334.673 99.065,335.508 99.358 C 336.342 99.652,337.374 100.381,337.801 100.980 C 338.227 101.579,338.846 102.069,339.176 102.069 C 339.750 102.069,341.814 103.459,341.625 103.718 C 341.575 103.786,342.205 104.552,343.025 105.419 C 345.064 107.576,347.280 112.352,347.504 115.074 C 347.602 116.266,347.849 117.450,348.053 117.705 C 350.026 120.177,344.337 139.713,337.887 152.614 C 331.392 165.606,329.272 168.936,321.080 179.015 C 320.244 180.044,319.720 180.887,319.918 180.887 C 320.446 180.887,329.049 170.063,330.549 167.511 C 331.257 166.306,332.006 165.054,332.213 164.729 C 333.155 163.246,335.059 159.620,335.046 159.333 C 335.038 159.158,335.271 158.881,335.564 158.717 C 335.856 158.553,336.221 157.844,336.373 157.141 C 336.526 156.437,336.779 155.773,336.936 155.665 C 337.378 155.360,339.357 152.141,340.449 149.951 C 340.989 148.867,341.574 147.921,341.750 147.849 C 341.925 147.777,342.069 147.534,342.069 147.309 C 342.069 147.085,342.670 145.903,343.405 144.682 C 344.139 143.462,344.861 141.894,345.009 141.198 C 345.301 139.823,348.579 136.191,349.188 136.568 C 349.391 136.693,349.557 136.620,349.557 136.406 C 349.557 136.170,350.421 136.107,351.763 136.245 C 353.419 136.416,354.054 136.335,354.310 135.921 C 355.070 134.690,381.084 134.944,381.084 136.182 C 381.084 136.612,381.654 136.749,383.448 136.749 C 385.228 136.749,385.813 136.887,385.813 137.308 C 385.813 137.758,386.085 137.792,387.197 137.485 C 387.959 137.275,388.777 137.223,389.015 137.370 C 390.031 137.998,389.985 136.451,388.898 133.449 C 381.842 113.957,372.114 95.647,361.073 81.075 C 358.208 77.294,352.980 75.568,348.374 76.883 M289.261 79.633 C 286.985 80.028,282.995 80.625,280.394 80.961 C 274.541 81.715,271.773 82.204,267.980 83.155 C 266.355 83.563,262.542 84.365,259.507 84.936 C 256.473 85.508,253.192 86.216,252.217 86.510 C 251.241 86.803,249.379 87.247,248.079 87.497 C 236.850 89.656,226.601 94.497,226.601 97.642 C 226.601 97.883,227.488 97.143,228.572 95.996 C 230.600 93.852,231.011 93.623,237.044 91.276 C 240.884 89.782,247.766 87.882,249.336 87.882 C 249.872 87.882,252.469 87.373,255.106 86.751 C 257.744 86.129,260.877 85.428,262.069 85.194 C 265.434 84.533,273.541 82.774,275.074 82.372 C 275.833 82.173,277.748 81.911,279.330 81.789 C 285.459 81.317,293.596 79.727,293.596 79.001 C 293.596 78.900,293.552 78.839,293.498 78.866 C 293.443 78.893,291.537 79.238,289.261 79.633 M279.861 120.650 C 278.947 122.625,278.266 124.309,278.350 124.392 C 278.433 124.476,279.251 122.929,280.168 120.956 C 281.085 118.983,281.765 117.299,281.680 117.213 C 281.594 117.128,280.776 118.674,279.861 120.650 M314.877 185.903 C 312.384 188.438,310.611 190.350,310.936 190.153 C 312.802 189.020,320.336 181.228,319.507 181.288 C 319.453 181.292,317.369 183.369,314.877 185.903 M253.007 190.012 C 251.331 195.537,251.349 195.468,251.573 195.468 C 251.882 195.468,254.691 186.382,254.455 186.146 C 254.339 186.030,253.687 187.770,253.007 190.012 M249.935 199.606 C 248.469 204.372,247.969 207.154,247.739 211.803 L 247.565 215.330 248.278 213.789 C 248.833 212.587,248.946 211.635,248.789 209.473 C 248.585 206.673,249.401 202.374,250.900 198.354 C 251.237 197.449,251.431 196.473,251.330 196.187 C 251.230 195.900,250.602 197.438,249.935 199.606 M278.662 204.565 C 277.084 205.197,277.901 205.284,280.197 204.729 C 282.072 204.276,282.179 204.204,280.985 204.196 C 280.227 204.192,279.181 204.358,278.662 204.565 M239.725 239.310 C 239.282 239.798,238.410 240.995,237.788 241.970 C 237.166 242.946,236.567 243.833,236.457 243.941 C 236.205 244.188,235.321 245.706,234.422 247.436 C 234.042 248.167,233.485 249.053,233.183 249.407 C 232.881 249.760,232.062 251.069,231.362 252.315 C 230.662 253.562,229.915 254.581,229.702 254.581 C 229.488 254.581,229.413 254.743,229.536 254.942 C 229.658 255.140,229.623 255.362,229.457 255.434 C 228.988 255.639,224.552 261.998,223.093 264.556 C 222.375 265.815,220.664 268.475,219.292 270.467 C 217.920 272.459,215.990 275.268,215.002 276.709 C 214.014 278.150,212.515 280.633,211.671 282.226 C 210.827 283.819,209.408 286.484,208.517 288.148 C 206.234 292.409,206.500 292.483,208.916 288.259 C 210.027 286.318,211.749 283.488,212.743 281.970 C 213.737 280.453,214.789 278.768,215.080 278.227 C 215.371 277.685,216.101 276.621,216.701 275.862 C 218.453 273.650,222.467 267.544,223.439 265.616 C 223.931 264.640,225.242 262.610,226.354 261.103 C 227.465 259.597,229.451 256.582,230.766 254.404 C 236.495 244.916,238.990 240.904,239.904 239.705 C 241.026 238.235,240.918 237.998,239.725 239.310 M203.656 297.635 C 201.737 301.366,201.334 302.266,201.581 302.266 C 201.775 302.266,202.911 300.148,204.592 296.650 C 206.241 293.220,205.558 293.938,203.656 297.635 M239.803 349.201 C 239.153 349.623,238.295 349.889,237.897 349.791 C 237.500 349.693,235.817 350.044,234.158 350.570 C 232.500 351.096,230.908 351.527,230.622 351.527 C 230.329 351.527,230.224 351.726,230.382 351.982 C 230.561 352.272,230.490 352.330,230.186 352.142 C 229.547 351.747,227.688 352.236,227.987 352.721 C 228.117 352.931,227.760 353.103,227.192 353.103 C 226.605 353.103,226.265 353.273,226.404 353.498 C 226.637 353.874,225.613 354.082,224.138 353.959 C 223.759 353.927,223.448 354.076,223.448 354.290 C 223.448 354.505,223.241 354.680,222.987 354.680 C 222.733 354.680,222.216 354.960,221.838 355.302 C 221.225 355.857,221.051 355.860,220.230 355.335 C 219.228 354.694,215.441 355.041,214.634 355.849 C 214.410 356.073,213.685 356.256,213.022 356.256 C 212.360 356.256,211.227 356.425,210.506 356.632 C 209.785 356.839,206.683 357.372,203.612 357.816 C 200.542 358.261,197.143 358.898,196.059 359.233 C 194.975 359.568,192.290 359.948,190.092 360.077 L 186.094 360.311 185.870 361.695 C 185.504 363.947,186.750 364.229,193.186 363.352 C 194.766 363.137,198.365 362.682,201.182 362.341 C 204.000 362.000,208.167 361.284,210.443 360.750 C 212.719 360.216,215.821 359.486,217.336 359.127 C 219.035 358.725,220.351 358.163,220.771 357.661 C 221.406 356.902,221.452 356.897,221.465 357.579 C 221.474 358.120,221.658 358.237,222.167 358.027 C 222.547 357.871,223.204 357.644,223.629 357.523 C 224.053 357.403,225.009 356.891,225.752 356.386 C 226.496 355.881,227.391 355.456,227.740 355.441 C 231.091 355.301,231.852 354.880,230.542 353.892 C 229.439 353.059,229.492 352.931,231.103 352.543 C 232.080 352.308,232.184 352.353,231.783 352.836 C 231.256 353.471,231.889 353.892,233.372 353.892 C 234.251 353.892,236.909 352.749,237.281 352.211 C 237.537 351.841,237.645 351.813,240.591 351.340 C 242.805 350.985,243.414 350.438,242.435 349.685 C 241.854 349.239,241.845 349.129,242.365 348.782 C 242.836 348.466,242.756 348.391,241.970 348.409 C 241.429 348.422,240.453 348.778,239.803 349.201 " stroke="none" fill="#b82e60" fill-rule="evenodd"></path><path id="path3" d="M246.984 8.670 C 246.853 9.429,246.442 12.798,246.070 16.158 C 244.974 26.070,244.986 25.872,245.533 25.346 C 245.800 25.089,246.070 23.936,246.133 22.784 C 246.290 19.927,246.903 17.307,247.500 16.938 C 248.162 16.529,248.520 10.868,247.955 9.729 C 247.721 9.255,247.460 8.512,247.376 8.079 C 247.271 7.538,247.148 7.724,246.984 8.670 M283.350 19.090 C 283.350 19.435,283.015 19.704,282.585 19.704 C 282.164 19.704,281.710 19.882,281.576 20.099 C 281.442 20.315,280.723 20.493,279.977 20.493 C 279.034 20.493,278.621 20.673,278.621 21.084 C 278.621 21.412,278.270 21.675,277.833 21.675 C 277.307 21.675,277.044 21.938,277.044 22.463 C 277.044 22.989,276.782 23.251,276.256 23.251 C 275.731 23.251,275.468 23.514,275.468 24.039 C 275.468 24.565,275.205 24.828,274.680 24.828 C 274.023 24.828,273.892 25.090,273.892 26.404 C 273.892 27.718,273.760 27.980,273.103 27.980 C 272.578 27.980,272.315 28.243,272.315 28.768 C 272.315 29.469,272.053 29.557,269.951 29.557 L 267.586 29.557 267.586 30.880 L 267.586 32.204 264.326 32.408 C 259.723 32.695,256.953 32.384,256.918 31.575 C 256.897 31.086,256.811 31.121,256.552 31.724 C 256.262 32.398,256.209 32.412,256.185 31.823 C 256.142 30.743,253.399 30.840,253.399 31.921 C 253.399 32.578,253.136 32.709,251.823 32.709 C 250.956 32.709,250.246 32.887,250.246 33.103 C 250.246 33.320,249.980 33.498,249.655 33.498 C 249.330 33.498,249.064 33.675,249.064 33.892 C 249.064 34.108,249.330 34.286,249.655 34.286 C 250.613 34.286,248.894 40.060,247.798 40.525 C 247.627 40.598,247.488 41.507,247.488 42.545 C 247.488 45.537,247.103 46.897,246.256 46.897 C 245.188 46.897,245.331 48.072,246.404 48.110 C 246.892 48.127,247.113 48.215,246.897 48.306 C 246.411 48.509,246.612 54.034,247.124 54.562 C 247.324 54.767,247.470 55.654,247.448 56.532 C 247.414 57.913,247.367 57.996,247.094 57.143 C 246.913 56.579,246.761 56.432,246.739 56.799 C 246.717 57.152,246.336 57.684,245.893 57.981 C 245.190 58.452,245.054 59.081,244.844 62.828 C 244.598 67.221,244.125 68.537,242.770 68.599 C 242.354 68.618,242.412 68.732,242.956 68.966 C 243.630 69.255,243.644 69.308,243.054 69.332 C 242.534 69.353,242.365 69.699,242.365 70.739 C 242.365 72.058,241.118 72.834,240.722 71.762 C 240.466 71.066,237.870 72.689,237.634 73.693 C 237.502 74.258,237.076 74.727,236.633 74.797 C 236.085 74.884,236.009 74.818,236.369 74.570 C 236.698 74.344,236.878 73.267,236.882 71.495 C 236.889 68.520,237.123 67.269,237.615 67.574 C 237.790 67.681,237.896 66.487,237.852 64.919 C 237.807 63.352,237.741 60.931,237.703 59.540 C 237.613 56.185,237.573 56.268,235.338 64.452 C 234.275 68.343,232.690 74.010,231.815 77.044 C 228.438 88.760,228.061 90.147,227.393 93.300 C 226.578 97.152,226.472 97.091,229.393 94.448 C 232.364 91.760,239.269 89.191,248.079 87.497 C 249.379 87.247,251.241 86.803,252.217 86.510 C 253.192 86.216,256.473 85.508,259.507 84.936 C 262.542 84.365,266.355 83.563,267.980 83.155 C 271.604 82.247,274.634 81.702,279.015 81.170 C 282.472 80.751,291.543 79.356,293.096 79.005 C 293.580 78.896,294.265 78.233,294.618 77.531 C 294.972 76.830,295.946 75.431,296.784 74.422 C 298.297 72.601,307.049 59.751,309.089 56.355 C 309.675 55.379,311.403 52.808,312.931 50.640 C 316.665 45.341,320.001 40.272,319.996 39.905 C 319.984 39.069,306.624 30.258,297.844 25.295 C 287.904 19.676,283.350 17.726,283.350 19.090 M242.438 37.833 C 242.154 39.241,241.577 41.552,241.158 42.967 C 240.360 45.656,240.127 47.626,240.741 46.502 C 240.918 46.177,241.283 45.025,241.551 43.941 C 241.820 42.857,242.301 41.340,242.621 40.570 C 242.951 39.776,243.149 38.327,243.079 37.221 L 242.956 35.271 242.438 37.833 M258.128 37.438 C 258.128 38.227,257.931 38.621,257.537 38.621 C 257.143 38.621,256.946 38.227,256.946 37.438 C 256.946 36.650,257.143 36.256,257.537 36.256 C 257.931 36.256,258.128 36.650,258.128 37.438 M239.821 48.670 C 239.661 49.320,239.384 50.429,239.205 51.133 C 238.781 52.811,238.963 52.750,239.872 50.912 C 240.335 49.978,240.520 49.047,240.364 48.449 C 240.117 47.501,240.109 47.504,239.821 48.670 M256.552 57.734 L 256.552 60.690 254.975 60.690 L 253.399 60.690 253.399 57.734 L 253.399 54.778 254.975 54.778 L 256.552 54.778 256.552 57.734 M242.365 85.530 C 242.365 85.970,242.054 86.440,241.675 86.575 C 241.296 86.709,240.682 87.079,240.311 87.397 C 239.901 87.749,239.264 87.881,238.682 87.735 C 238.070 87.582,237.550 87.707,237.238 88.083 C 236.607 88.843,236.059 88.833,236.059 88.061 C 236.059 86.921,237.897 85.517,239.391 85.517 C 240.159 85.517,240.788 85.340,240.788 85.123 C 240.788 84.906,241.143 84.729,241.576 84.729 C 242.106 84.729,242.365 84.992,242.365 85.530 M347.768 119.985 C 347.616 121.205,347.576 122.289,347.680 122.393 C 347.784 122.497,347.987 121.577,348.132 120.349 C 348.276 119.120,348.316 118.037,348.220 117.941 C 348.124 117.845,347.921 118.765,347.768 119.985 M343.330 139.783 C 342.747 141.683,343.029 141.966,343.645 140.099 C 343.905 139.311,344.041 138.590,343.948 138.496 C 343.854 138.402,343.576 138.982,343.330 139.783 M272.906 204.685 C 271.606 205.181,268.414 206.085,265.813 206.692 C 254.179 209.410,249.064 210.930,249.064 211.670 C 249.064 212.972,265.160 209.224,272.977 206.102 C 274.533 205.481,276.484 204.850,277.312 204.702 C 279.992 204.220,280.150 203.767,277.635 203.775 C 276.138 203.780,274.404 204.113,272.906 204.685 M248.532 227.921 C 247.058 229.489,244.792 232.521,241.274 237.635 C 238.856 241.149,236.489 244.927,230.766 254.404 C 229.451 256.582,227.465 259.597,226.354 261.103 C 224.487 263.633,222.418 267.192,222.813 267.192 C 222.973 267.192,226.958 261.807,229.957 257.537 C 231.455 255.405,237.232 246.755,241.802 239.803 C 243.369 237.419,245.101 234.581,245.650 233.498 C 246.199 232.414,247.458 230.553,248.447 229.362 C 250.147 227.317,250.552 226.601,250.010 226.601 C 249.880 226.601,249.215 227.195,248.532 227.921 M183.707 360.610 C 181.063 361.194,181.073 362.281,183.726 362.768 C 185.075 363.016,185.206 362.956,185.451 361.982 C 185.794 360.614,185.332 360.251,183.707 360.610 " stroke="none" fill="#60227d" fill-rule="evenodd"></path><path id="path4" d="M280.690 204.026 C 281.286 204.116,282.261 204.116,282.857 204.026 C 283.453 203.936,282.966 203.862,281.773 203.862 C 280.581 203.862,280.094 203.936,280.690 204.026 M275.074 205.352 C 273.882 205.788,272.598 206.246,272.221 206.369 C 271.349 206.653,271.718 207.291,272.756 207.291 C 273.189 207.291,273.458 207.151,273.353 206.981 C 273.247 206.811,273.459 206.651,273.822 206.626 C 275.519 206.508,279.350 204.510,277.813 204.545 C 277.499 204.552,276.266 204.915,275.074 205.352 M266.601 208.282 C 265.084 208.783,264.020 209.206,264.236 209.222 C 264.889 209.271,268.606 208.210,269.404 207.747 C 270.504 207.108,269.691 207.263,266.601 208.282 M258.522 210.443 C 257.742 210.693,257.701 210.759,258.325 210.759 C 258.759 210.759,259.557 210.617,260.099 210.443 C 260.879 210.194,260.920 210.128,260.296 210.128 C 259.862 210.128,259.064 210.270,258.522 210.443 M255.145 211.218 C 254.696 211.399,253.140 211.675,251.687 211.831 C 249.063 212.112,249.039 212.125,248.298 213.741 C 247.508 215.463,247.516 215.839,248.328 215.337 C 248.603 215.167,249.191 214.995,249.635 214.953 C 250.857 214.838,253.161 213.857,253.517 213.300 C 253.690 213.030,253.993 212.808,254.189 212.808 C 254.386 212.808,255.200 212.365,255.998 211.823 C 257.463 210.829,256.970 210.479,255.145 211.218 M325.907 240.591 C 324.988 262.945,310.578 294.991,293.409 312.865 C 272.435 334.701,259.609 342.640,233.103 350.195 C 220.625 353.752,210.214 356.381,205.123 357.260 L 201.970 357.804 204.532 357.598 C 205.941 357.486,208.213 357.137,209.581 356.825 C 210.949 356.512,212.554 356.256,213.148 356.256 C 213.741 356.256,214.410 356.073,214.634 355.849 C 215.441 355.041,219.228 354.694,220.230 355.335 C 221.051 355.860,221.225 355.857,221.838 355.302 C 222.216 354.960,222.733 354.680,222.987 354.680 C 223.241 354.680,223.448 354.505,223.448 354.290 C 223.448 354.076,223.759 353.927,224.138 353.959 C 225.613 354.082,226.637 353.874,226.404 353.498 C 226.265 353.273,226.605 353.103,227.192 353.103 C 227.760 353.103,228.117 352.931,227.987 352.721 C 227.688 352.236,229.547 351.747,230.186 352.142 C 230.490 352.330,230.561 352.272,230.382 351.982 C 230.224 351.726,230.329 351.527,230.622 351.527 C 230.908 351.527,232.518 351.091,234.199 350.557 C 235.880 350.023,237.517 349.687,237.836 349.810 C 238.156 349.932,239.049 349.659,239.822 349.203 C 241.259 348.355,243.576 347.971,242.365 348.782 C 241.845 349.129,241.854 349.239,242.435 349.685 C 243.414 350.438,242.805 350.985,240.591 351.340 C 237.645 351.813,237.537 351.841,237.281 352.211 C 236.536 353.289,233.880 354.004,232.031 353.626 C 230.009 353.212,229.750 353.317,230.837 354.112 C 231.760 354.787,231.443 355.010,229.176 355.283 C 227.188 355.521,225.279 356.314,224.791 357.104 C 224.589 357.431,224.780 357.479,225.456 357.273 C 225.977 357.114,227.025 356.844,227.783 356.674 C 229.967 356.184,238.710 353.551,242.167 352.342 C 243.901 351.735,245.941 351.027,246.700 350.768 C 247.458 350.509,251.182 349.239,254.975 347.946 C 263.920 344.895,267.776 344.039,272.574 344.039 C 274.671 344.039,276.290 343.941,276.170 343.822 C 276.050 343.702,274.025 343.586,271.671 343.565 C 269.316 343.543,267.820 343.448,268.345 343.352 C 268.871 343.256,269.710 342.911,270.209 342.583 C 271.188 341.943,279.639 342.142,282.562 342.875 C 283.403 343.086,284.555 343.066,285.517 342.824 C 286.384 342.605,287.892 342.364,288.867 342.286 C 291.814 342.052,295.961 341.222,295.961 340.865 C 295.961 340.396,298.607 339.712,300.493 339.694 C 302.125 339.678,303.476 338.867,303.956 337.615 C 304.133 337.151,304.079 336.997,303.799 337.170 C 303.491 337.360,303.488 337.213,303.788 336.653 C 304.118 336.037,304.771 335.820,306.882 335.626 C 313.384 335.030,315.679 334.320,312.580 333.864 C 312.041 333.785,311.724 333.457,311.724 332.978 C 311.724 332.487,311.452 332.217,310.960 332.217 C 310.361 332.217,310.169 331.897,310.073 330.739 C 309.957 329.341,309.870 329.254,308.473 329.139 L 306.995 329.016 306.995 330.617 C 306.995 332.183,306.966 332.217,305.616 332.217 C 303.528 332.217,303.434 328.797,305.517 328.596 C 306.580 328.494,306.819 328.291,306.921 327.402 C 307.025 326.504,307.279 326.295,308.498 326.103 C 310.198 325.836,312.401 324.808,313.276 323.875 C 313.615 323.514,315.399 322.845,317.241 322.388 C 320.343 321.619,325.188 319.868,326.108 319.184 C 326.325 319.022,327.744 318.245,329.261 317.456 C 330.778 316.667,332.729 315.596,333.596 315.076 C 335.838 313.731,338.940 312.262,340.131 311.982 C 343.187 311.263,348.266 307.030,349.979 303.775 C 350.244 303.270,350.892 302.325,351.417 301.675 C 354.089 298.369,359.143 288.955,359.617 286.400 C 359.769 285.584,360.050 284.820,360.242 284.701 C 360.434 284.583,360.591 283.986,360.591 283.376 C 360.591 282.766,360.887 281.491,361.249 280.542 C 363.089 275.719,362.022 267.148,358.851 261.281 C 356.591 257.098,346.956 247.776,342.355 245.320 C 337.697 242.833,335.865 241.791,335.328 241.322 C 334.462 240.565,330.010 240.202,328.096 240.732 C 326.904 241.062,326.465 241.050,326.230 240.680 C 326.062 240.414,325.916 240.374,325.907 240.591 M187.923 329.163 C 182.187 340.515,180.493 343.952,180.493 344.236 C 180.493 344.412,180.075 345.105,179.564 345.776 C 179.053 346.446,178.497 347.438,178.329 347.980 C 178.160 348.522,177.904 349.054,177.759 349.163 C 177.053 349.692,174.975 353.236,174.975 353.911 C 174.975 354.334,174.812 354.680,174.612 354.680 C 174.412 354.680,174.053 355.272,173.814 355.995 C 173.229 357.768,171.987 359.053,171.164 358.737 C 170.726 358.569,170.605 358.638,170.796 358.948 C 172.086 361.035,174.100 358.559,178.471 349.513 C 180.503 345.311,183.193 339.744,184.451 337.143 C 185.709 334.542,187.462 330.951,188.348 329.163 C 189.235 327.374,189.871 325.911,189.762 325.911 C 189.654 325.911,188.826 327.374,187.923 329.163 M316.453 328.670 C 316.453 328.898,317.701 329.064,319.409 329.064 C 321.117 329.064,322.365 328.898,322.365 328.670 C 322.365 328.442,321.117 328.276,319.409 328.276 C 317.701 328.276,316.453 328.442,316.453 328.670 M300.296 336.355 C 300.296 336.749,299.901 336.946,299.113 336.946 C 298.325 336.946,297.931 336.749,297.931 336.355 C 297.931 335.961,298.325 335.764,299.113 335.764 C 299.901 335.764,300.296 335.961,300.296 336.355 M308.571 336.552 C 308.571 336.768,308.837 336.946,309.163 336.946 C 309.488 336.946,309.754 336.768,309.754 336.552 C 309.754 336.335,309.488 336.158,309.163 336.158 C 308.837 336.158,308.571 336.335,308.571 336.552 M281.884 343.935 C 282.920 344.017,284.516 344.016,285.431 343.933 C 286.345 343.851,285.498 343.784,283.547 343.785 C 281.596 343.786,280.848 343.854,281.884 343.935 M220.690 357.635 C 220.288 358.120,220.315 358.227,220.838 358.227 C 221.190 358.227,221.478 357.961,221.478 357.635 C 221.478 357.310,221.411 357.044,221.329 357.044 C 221.247 357.044,220.959 357.310,220.690 357.635 M191.766 358.845 C 188.104 359.357,184.645 359.960,184.081 360.185 L 183.054 360.595 184.147 360.449 C 184.749 360.368,185.342 360.466,185.465 360.666 C 185.878 361.334,185.219 362.955,184.525 362.983 C 183.950 363.007,183.967 363.064,184.631 363.350 C 185.774 363.841,185.876 363.817,185.872 363.054 C 185.860 360.169,185.621 360.339,190.049 360.074 C 192.271 359.941,194.709 359.638,195.468 359.401 C 196.227 359.164,198.000 358.731,199.409 358.438 C 203.744 357.538,199.498 357.764,191.766 358.845 M203.873 398.794 C 203.430 399.967,203.449 400.000,204.566 400.000 C 205.889 400.000,205.993 399.644,205.021 398.444 L 204.329 397.588 203.873 398.794 " stroke="none" fill="#a95b41" fill-rule="evenodd"></path><path id="path5" d="M153.039 7.882 C 153.039 9.507,153.108 10.172,153.193 9.360 C 153.279 8.547,153.279 7.217,153.193 6.404 C 153.108 5.591,153.039 6.256,153.039 7.882 M152.650 15.369 C 152.650 17.212,152.718 17.966,152.801 17.044 C 152.884 16.123,152.884 14.616,152.801 13.695 C 152.718 12.773,152.650 13.527,152.650 15.369 M152.258 27.783 C 152.257 29.734,152.324 30.582,152.406 29.667 C 152.489 28.752,152.490 27.156,152.408 26.120 C 152.327 25.084,152.259 25.833,152.258 27.783 M151.864 38.818 C 151.863 40.768,151.929 41.616,152.012 40.702 C 152.095 39.787,152.096 38.191,152.014 37.155 C 151.933 36.119,151.865 36.867,151.864 38.818 M151.483 54.581 C 151.484 57.399,151.547 58.500,151.623 57.028 C 151.699 55.556,151.698 53.250,151.621 51.905 C 151.545 50.559,151.482 51.764,151.483 54.581 M151.062 63.448 C 151.062 64.857,151.134 65.433,151.221 64.729 C 151.308 64.025,151.308 62.872,151.221 62.167 C 151.134 61.463,151.062 62.039,151.062 63.448 M150.682 75.074 C 150.681 77.025,150.747 77.872,150.830 76.958 C 150.912 76.043,150.913 74.447,150.832 73.411 C 150.751 72.375,150.683 73.123,150.682 75.074 M302.266 78.523 C 301.074 78.698,298.649 78.908,296.878 78.990 C 293.480 79.147,291.130 79.828,293.885 79.858 C 301.807 79.942,302.854 80.506,305.796 86.272 C 306.279 87.219,307.190 88.428,307.820 88.958 C 308.450 89.489,308.966 90.174,308.966 90.482 C 308.966 90.790,309.320 91.346,309.754 91.717 C 310.761 92.580,310.754 93.005,309.732 93.005 C 309.287 93.005,308.095 93.382,307.085 93.842 C 306.074 94.302,304.003 95.024,302.483 95.445 C 293.876 97.830,286.759 104.714,282.966 114.325 C 280.821 119.760,278.576 124.532,278.164 124.532 C 277.982 124.532,277.833 124.887,277.833 125.320 C 277.833 125.754,277.659 126.108,277.446 126.108 C 277.233 126.108,276.941 126.581,276.796 127.159 C 276.651 127.737,275.785 129.732,274.873 131.593 C 273.527 134.336,271.271 139.564,267.970 147.586 C 267.792 148.020,266.857 150.148,265.892 152.315 C 263.756 157.115,258.715 172.261,254.770 185.736 C 254.401 186.995,254.173 188.097,254.262 188.186 C 254.351 188.275,255.454 185.029,256.714 180.972 C 261.508 165.536,264.255 157.538,265.979 153.994 C 266.429 153.071,267.930 149.478,269.317 146.010 C 272.341 138.444,274.668 133.180,277.330 127.882 C 278.419 125.714,280.646 120.917,282.279 117.220 C 286.517 107.624,287.295 106.339,291.195 102.502 C 295.112 98.649,297.347 97.478,305.940 94.774 C 312.392 92.744,323.775 94.224,331.322 98.074 C 332.230 98.537,333.202 98.912,333.482 98.906 C 334.480 98.886,327.123 95.448,325.539 95.195 C 323.952 94.941,324.728 94.112,326.357 94.322 C 329.444 94.720,332.388 95.269,333.695 95.690 C 335.154 96.160,335.207 96.090,334.365 94.805 C 334.012 94.265,333.194 93.768,332.420 93.623 C 331.686 93.485,330.231 92.786,329.188 92.069 C 328.144 91.352,326.645 90.552,325.856 90.292 C 324.178 89.740,320.788 87.575,320.788 87.056 C 320.788 86.860,320.517 86.700,320.185 86.700 C 319.853 86.700,319.467 86.389,319.327 86.010 C 319.025 85.190,317.358 83.547,316.827 83.547 C 316.621 83.547,316.453 83.402,316.453 83.224 C 316.453 82.370,313.849 80.003,313.401 80.451 C 313.049 80.803,312.796 80.793,312.331 80.407 C 311.996 80.129,310.703 79.669,309.457 79.385 C 308.211 79.101,306.571 78.719,305.813 78.537 C 305.054 78.355,303.458 78.349,302.266 78.523 M150.294 85.517 C 150.294 87.793,150.359 88.724,150.438 87.586 C 150.518 86.448,150.518 84.586,150.438 83.448 C 150.359 82.310,150.294 83.241,150.294 85.517 M240.266 90.030 C 238.564 90.637,237.697 91.295,239.212 90.830 C 241.365 90.169,242.924 89.513,242.365 89.503 C 242.039 89.497,241.095 89.735,240.266 90.030 M224.306 103.879 C 223.369 107.042,222.677 109.705,222.769 109.797 C 222.861 109.889,223.333 108.586,223.819 106.903 C 224.304 105.220,225.060 102.748,225.497 101.410 C 225.935 100.072,226.229 98.786,226.151 98.553 C 226.074 98.319,225.243 100.716,224.306 103.879 M149.908 107.192 C 149.908 110.118,149.970 111.315,150.046 109.852 C 150.122 108.389,150.122 105.995,150.046 104.532 C 149.970 103.069,149.908 104.266,149.908 107.192 M221.905 112.151 C 221.650 113.161,221.516 114.061,221.607 114.152 C 221.697 114.242,221.979 113.490,222.233 112.479 C 222.487 111.469,222.622 110.569,222.531 110.479 C 222.441 110.389,222.159 111.141,221.905 112.151 M219.611 119.648 C 218.713 122.443,217.514 126.591,216.946 128.867 C 216.379 131.143,215.228 135.044,214.389 137.537 C 213.551 140.030,211.954 144.995,210.840 148.571 C 208.927 154.717,208.253 156.506,205.724 162.167 C 205.143 163.468,204.263 165.596,203.768 166.897 C 203.273 168.197,201.834 171.655,200.570 174.581 C 199.306 177.507,197.800 181.319,197.222 183.051 C 196.645 184.784,195.725 187.084,195.178 188.163 C 194.631 189.242,193.072 193.075,191.712 196.682 C 190.353 200.288,188.967 203.767,188.632 204.414 C 188.298 205.061,187.411 207.170,186.662 209.101 C 181.677 221.946,178.338 226.455,172.808 227.808 L 171.626 228.097 172.723 228.137 C 174.741 228.211,178.268 225.674,180.827 222.309 C 182.793 219.721,183.880 217.484,187.069 209.458 C 187.844 207.507,188.820 205.233,189.238 204.403 C 189.656 203.574,190.852 200.558,191.897 197.702 C 192.942 194.845,194.365 191.267,195.061 189.751 C 195.756 188.235,196.944 185.222,197.702 183.054 C 198.459 180.887,199.794 177.517,200.668 175.567 C 201.541 173.616,203.017 170.069,203.947 167.685 C 204.877 165.300,206.294 161.931,207.096 160.197 C 209.056 155.959,215.211 137.236,217.135 129.655 C 217.988 126.296,219.321 121.706,220.097 119.456 C 220.874 117.205,221.449 115.185,221.376 114.966 C 221.303 114.747,220.509 116.854,219.611 119.648 M393.153 149.803 C 392.824 151.446,393.143 151.764,393.498 150.148 C 393.647 149.467,393.687 148.827,393.587 148.727 C 393.487 148.626,393.291 149.111,393.153 149.803 M392.101 153.176 C 391.832 154.003,390.736 156.897,389.666 159.606 C 387.310 165.570,387.154 166.035,387.999 164.571 C 388.902 163.007,393.004 152.085,392.775 151.856 C 392.674 151.754,392.371 152.348,392.101 153.176 M149.919 161.379 C 149.919 165.714,149.977 167.541,150.047 165.440 C 150.118 163.338,150.118 159.791,150.048 157.558 C 149.977 155.325,149.920 157.044,149.919 161.379 M99.362 163.201 C 100.639 163.669,100.690 164.022,102.676 185.813 C 103.273 192.372,103.413 193.512,104.786 202.956 C 105.243 206.099,105.816 210.051,106.061 211.739 C 106.305 213.427,106.586 214.727,106.685 214.628 C 106.784 214.529,106.674 213.148,106.440 211.559 C 106.205 209.970,105.464 204.768,104.792 200.000 C 103.690 192.181,103.316 188.597,102.083 173.990 C 101.264 164.288,100.857 162.727,99.164 162.790 C 98.428 162.817,98.453 162.868,99.362 163.201 M95.661 164.088 C 93.339 165.516,93.388 165.716,95.764 164.509 C 98.351 163.194,98.416 163.149,97.701 163.165 C 97.394 163.172,96.476 163.587,95.661 164.088 M385.887 168.492 C 384.700 170.936,384.832 171.278,386.055 168.927 C 386.602 167.876,386.982 166.949,386.899 166.867 C 386.817 166.784,386.362 167.516,385.887 168.492 M87.586 168.715 C 86.243 169.576,85.808 170.153,86.995 169.501 C 87.899 169.004,89.316 167.908,89.064 167.901 C 88.956 167.898,88.291 168.264,87.586 168.715 M150.239 170.640 C 150.239 171.399,150.320 171.709,150.419 171.330 C 150.519 170.951,150.519 170.330,150.419 169.951 C 150.320 169.571,150.239 169.882,150.239 170.640 M384.274 171.921 C 384.088 172.409,383.649 173.495,383.298 174.334 C 382.605 175.991,382.472 176.716,383.039 175.749 C 383.637 174.728,385.026 171.034,384.812 171.034 C 384.702 171.034,384.459 171.433,384.274 171.921 M150.753 175.172 C 151.748 188.592,159.538 212.119,164.912 217.931 C 165.413 218.473,166.189 219.626,166.638 220.493 C 167.086 221.360,167.461 221.929,167.470 221.758 C 167.502 221.199,165.984 218.482,165.344 217.950 C 164.179 216.984,158.898 206.334,157.126 201.379 C 154.827 194.951,153.063 187.551,151.302 176.946 C 150.697 173.307,150.589 172.957,150.753 175.172 M323.519 175.256 C 320.715 178.722,319.925 179.964,321.943 177.734 C 323.582 175.924,326.082 172.611,325.809 172.611 C 325.727 172.611,324.696 173.801,323.519 175.256 M381.752 177.936 C 381.391 178.692,381.178 179.310,381.277 179.310 C 381.547 179.310,382.743 176.897,382.563 176.717 C 382.477 176.632,382.112 177.180,381.752 177.936 M313.695 186.320 C 301.749 198.257,293.114 203.252,284.185 203.390 C 281.868 203.426,281.730 203.469,282.956 203.774 C 286.509 204.660,295.673 201.758,300.733 198.144 C 306.781 193.825,308.496 192.366,313.468 187.315 C 316.494 184.239,319.111 181.810,319.284 181.916 C 319.456 182.023,319.480 181.806,319.337 181.434 C 319.142 180.926,319.217 180.838,319.637 181.082 C 319.945 181.261,320.066 181.262,319.905 181.085 C 319.744 180.907,319.810 180.524,320.052 180.233 C 321.088 178.985,319.826 180.193,313.695 186.320 M377.956 185.348 C 374.325 192.248,370.376 198.071,366.132 202.783 C 365.144 203.880,365.488 203.600,366.897 202.159 C 371.041 197.922,381.504 181.570,380.630 180.696 C 380.549 180.614,379.346 182.708,377.956 185.348 M253.036 191.617 C 252.556 193.193,251.974 194.976,251.743 195.579 C 251.512 196.182,251.407 196.760,251.510 196.863 C 251.614 196.967,252.273 195.262,252.976 193.074 C 253.678 190.887,254.176 189.020,254.081 188.925 C 253.986 188.830,253.515 190.041,253.036 191.617 M39.150 194.483 C 39.151 196.217,39.221 196.877,39.304 195.950 C 39.387 195.023,39.386 193.605,39.301 192.797 C 39.217 191.990,39.148 192.749,39.150 194.483 M250.866 198.452 C 250.721 199.029,250.678 199.578,250.771 199.671 C 250.864 199.764,251.058 199.367,251.203 198.790 C 251.348 198.212,251.391 197.664,251.298 197.571 C 251.205 197.478,251.011 197.874,250.866 198.452 M363.612 205.583 C 362.819 206.377,363.558 206.857,366.207 207.270 C 367.778 207.514,370.128 207.880,371.429 208.084 C 379.728 209.379,391.959 219.687,397.374 229.951 C 397.755 230.673,398.004 230.879,398.014 230.481 C 398.030 229.793,393.764 223.228,391.460 220.396 C 390.711 219.476,388.558 217.534,386.675 216.081 C 384.792 214.627,382.667 212.940,381.953 212.332 C 379.232 210.012,372.367 207.291,369.239 207.291 C 366.641 207.291,363.661 206.499,363.901 205.873 C 364.131 205.273,364.027 205.169,363.612 205.583 M269.752 207.631 C 268.883 208.025,267.199 208.567,266.008 208.835 C 264.817 209.103,263.576 209.424,263.251 209.548 C 262.541 209.820,262.507 209.829,259.456 210.560 C 258.127 210.879,256.708 211.346,256.303 211.598 C 255.601 212.036,255.603 212.048,256.355 211.862 C 256.788 211.755,258.296 211.383,259.704 211.035 C 265.926 209.501,272.280 207.552,272.086 207.239 C 271.796 206.769,271.563 206.808,269.752 207.631 M106.830 215.764 C 106.799 216.537,108.712 227.859,109.593 232.118 C 109.840 233.310,110.280 234.729,110.571 235.271 C 111.268 236.566,111.263 236.199,110.555 234.060 C 110.237 233.101,109.342 228.591,108.567 224.039 C 107.118 215.529,106.882 214.406,106.830 215.764 M273.498 219.484 C 272.956 219.670,271.581 219.841,270.444 219.862 C 267.014 219.927,261.314 221.055,257.230 222.477 C 255.111 223.215,252.473 223.938,251.370 224.084 C 249.863 224.284,249.114 224.629,248.367 225.468 C 247.820 226.082,247.043 226.689,246.642 226.816 C 246.240 226.944,245.911 227.339,245.911 227.694 C 245.911 228.049,245.246 229.324,244.433 230.527 C 243.621 231.730,242.750 233.068,242.500 233.500 C 242.249 233.932,241.850 234.241,241.613 234.187 C 241.376 234.133,241.182 234.358,241.182 234.687 C 241.182 235.367,239.296 239.113,238.800 239.420 C 238.620 239.531,238.231 240.106,237.934 240.697 C 237.637 241.289,237.074 242.261,236.682 242.857 C 236.289 243.453,236.138 243.941,236.345 243.941 C 236.552 243.941,236.908 243.542,237.136 243.054 C 237.364 242.567,238.146 241.386,238.874 240.430 C 239.602 239.475,240.463 238.303,240.788 237.826 C 245.865 230.379,248.404 227.258,250.088 226.396 C 250.927 225.967,251.820 225.424,252.073 225.191 C 253.045 224.291,262.057 221.502,265.813 220.938 C 279.158 218.937,285.902 219.061,295.331 221.480 C 298.770 222.363,301.748 223.030,301.950 222.963 C 302.152 222.895,299.246 222.057,295.493 221.101 C 288.453 219.306,276.556 218.431,273.498 219.484 M167.500 222.484 C 167.481 223.128,169.624 226.312,170.669 227.192 C 171.453 227.853,171.424 227.757,170.487 226.601 C 169.873 225.842,168.952 224.512,168.441 223.645 C 167.930 222.778,167.507 222.256,167.500 222.484 M312.315 227.563 C 312.966 228.141,314.030 228.895,314.680 229.239 C 315.330 229.583,316.660 230.406,317.635 231.068 C 318.611 231.730,319.166 231.973,318.870 231.606 C 318.574 231.240,317.332 230.376,316.111 229.685 C 314.891 228.994,313.271 227.998,312.512 227.471 L 311.133 226.514 312.315 227.563 M319.606 232.209 C 319.606 232.299,320.803 233.416,322.266 234.691 C 323.729 235.966,324.571 236.598,324.138 236.096 C 323.270 235.090,319.606 231.948,319.606 232.209 M325.609 241.182 C 325.609 241.941,325.690 242.251,325.789 241.872 C 325.888 241.493,325.888 240.872,325.789 240.493 C 325.690 240.113,325.609 240.424,325.609 241.182 M113.458 242.956 C 114.122 244.241,114.668 244.954,114.665 244.532 C 114.664 244.315,114.300 243.695,113.856 243.153 C 113.321 242.498,113.187 242.432,113.458 242.956 M235.126 245.616 L 234.417 246.897 235.229 245.911 C 235.950 245.038,236.270 244.335,235.947 244.335 C 235.885 244.335,235.516 244.911,235.126 245.616 M325.215 245.911 C 325.215 246.670,325.296 246.980,325.395 246.601 C 325.494 246.222,325.494 245.601,325.395 245.222 C 325.296 244.842,325.215 245.153,325.215 245.911 M116.285 248.473 C 116.772 249.340,117.340 250.227,117.547 250.443 C 118.137 251.062,116.787 248.565,116.055 247.685 C 115.695 247.251,115.798 247.606,116.285 248.473 M233.443 248.177 C 232.386 249.620,229.632 254.581,229.888 254.581 C 229.999 254.581,230.662 253.562,231.361 252.315 C 232.060 251.069,232.933 249.695,233.302 249.261 C 233.913 248.541,234.612 247.094,234.347 247.094 C 234.287 247.094,233.880 247.581,233.443 248.177 M119.615 254.202 C 120.877 256.245,122.562 258.642,122.562 258.396 C 122.562 257.969,119.863 253.793,119.588 253.793 C 119.464 253.793,119.476 253.977,119.615 254.202 M124.036 261.542 C 124.851 263.095,125.573 264.310,125.642 264.242 C 125.816 264.069,123.943 260.467,123.180 259.507 C 122.836 259.074,123.221 259.990,124.036 261.542 M127.093 267.022 C 127.852 268.282,128.473 269.486,128.473 269.698 C 128.473 269.909,128.573 269.982,128.696 269.859 C 128.996 269.559,127.122 265.899,126.336 265.247 C 125.993 264.963,126.334 265.761,127.093 267.022 M129.294 271.724 C 129.294 271.941,129.634 272.739,130.049 273.498 C 130.465 274.256,130.804 274.700,130.804 274.483 C 130.804 274.266,130.465 273.468,130.049 272.709 C 129.634 271.951,129.294 271.507,129.294 271.724 M131.427 276.616 C 131.896 278.141,132.802 280.197,133.004 280.197 C 133.216 280.197,131.674 276.165,131.347 275.862 C 131.229 275.754,131.265 276.093,131.427 276.616 M133.822 282.167 C 133.967 282.709,134.250 283.419,134.451 283.744 C 134.705 284.155,134.736 284.034,134.552 283.350 C 134.407 282.808,134.125 282.099,133.924 281.773 C 133.670 281.363,133.639 281.483,133.822 282.167 M210.134 286.182 C 209.052 287.984,206.344 293.094,204.118 297.537 C 192.293 321.134,185.619 334.626,185.646 334.884 C 185.662 335.043,188.110 330.296,191.086 324.335 C 199.553 307.373,209.241 288.522,210.911 285.757 C 211.748 284.371,212.359 283.163,212.268 283.072 C 212.177 282.981,211.217 284.381,210.134 286.182 M309.951 289.655 C 309.614 290.305,309.428 290.837,309.536 290.837 C 309.645 290.837,310.009 290.305,310.345 289.655 C 310.681 289.005,310.868 288.473,310.759 288.473 C 310.651 288.473,310.287 289.005,309.951 289.655 M138.353 293.399 C 138.353 293.616,138.606 294.236,138.916 294.778 C 139.226 295.320,139.479 295.586,139.479 295.369 C 139.479 295.153,139.226 294.532,138.916 293.990 C 138.606 293.448,138.353 293.182,138.353 293.399 M140.323 298.128 C 140.323 298.345,140.577 298.966,140.887 299.507 C 141.196 300.049,141.450 300.315,141.450 300.099 C 141.450 299.882,141.196 299.261,140.887 298.719 C 140.577 298.177,140.323 297.911,140.323 298.128 M299.113 305.813 C 298.427 306.680,297.953 307.389,298.062 307.389 C 298.170 307.389,298.821 306.680,299.507 305.813 C 300.194 304.946,300.667 304.236,300.559 304.236 C 300.450 304.236,299.800 304.946,299.113 305.813 M143.476 306.010 C 143.476 306.227,143.730 306.847,144.039 307.389 C 144.349 307.931,144.603 308.197,144.603 307.980 C 144.603 307.764,144.349 307.143,144.039 306.601 C 143.730 306.059,143.476 305.793,143.476 306.010 M292.505 313.406 C 290.504 315.415,288.867 317.201,288.867 317.375 C 288.867 317.549,289.089 317.444,289.360 317.140 C 289.631 316.837,291.356 315.051,293.193 313.171 C 295.031 311.292,296.446 309.754,296.338 309.754 C 296.230 309.754,294.505 311.397,292.505 313.406 M284.917 321.084 L 281.576 324.532 285.025 321.191 C 288.227 318.088,288.652 317.635,288.366 317.635 C 288.307 317.635,286.755 319.187,284.917 321.084 M358.316 320.604 C 357.197 321.358,354.280 322.870,351.835 323.964 C 349.390 325.059,346.059 326.558,344.433 327.296 C 342.808 328.034,341.034 328.753,340.493 328.894 C 338.860 329.318,329.357 333.010,327.789 333.830 C 327.412 334.026,326.669 334.187,326.137 334.187 C 325.605 334.187,325.063 334.360,324.932 334.571 C 324.802 334.782,323.860 335.220,322.840 335.545 C 321.820 335.869,320.010 336.481,318.818 336.904 C 316.708 337.654,311.749 339.064,308.966 339.707 C 308.207 339.882,305.281 340.561,302.463 341.216 C 293.698 343.252,286.634 344.039,277.139 344.039 C 268.386 344.039,265.985 344.335,260.566 346.078 C 257.658 347.014,257.439 347.442,260.314 346.573 C 264.652 345.260,268.037 344.892,277.833 344.670 C 285.623 344.493,289.299 344.225,294.187 343.476 C 300.788 342.466,301.895 342.228,310.542 339.954 C 320.034 337.458,322.467 336.673,331.823 333.087 C 334.966 331.883,338.783 330.441,340.307 329.882 C 341.830 329.324,343.870 328.403,344.839 327.836 C 345.808 327.270,347.310 326.578,348.177 326.299 C 350.370 325.595,355.634 322.946,358.227 321.243 C 359.419 320.459,360.468 319.771,360.558 319.712 C 360.649 319.654,360.639 319.522,360.537 319.420 C 360.434 319.318,359.435 319.851,358.316 320.604 M150.166 321.724 C 150.140 322.217,152.204 326.745,152.377 326.573 C 152.455 326.494,151.994 325.293,151.352 323.904 C 150.710 322.516,150.176 321.534,150.166 321.724 M77.833 324.729 C 78.382 325.813,78.920 326.700,79.028 326.700 C 79.136 326.700,78.776 325.813,78.227 324.729 C 77.677 323.645,77.139 322.759,77.031 322.759 C 76.923 322.759,77.283 323.645,77.833 324.729 M279.388 326.207 L 278.030 327.685 279.507 326.327 C 280.883 325.063,281.166 324.729,280.865 324.729 C 280.800 324.729,280.135 325.394,279.388 326.207 M152.766 327.880 C 152.906 328.421,153.350 329.574,153.753 330.442 C 154.155 331.310,154.369 331.577,154.229 331.036 C 154.089 330.495,153.645 329.342,153.243 328.475 C 152.840 327.607,152.626 327.339,152.766 327.880 M81.795 331.330 C 83.901 334.576,84.457 335.369,84.630 335.369 C 84.734 335.369,84.503 334.882,84.117 334.286 C 82.010 331.039,81.454 330.246,81.282 330.246 C 81.177 330.246,81.408 330.734,81.795 331.330 M154.511 332.414 C 154.511 332.631,154.764 333.251,155.074 333.793 C 155.384 334.335,155.637 334.601,155.637 334.384 C 155.637 334.167,155.384 333.547,155.074 333.005 C 154.764 332.463,154.511 332.197,154.511 332.414 M156.087 335.961 C 156.087 336.177,156.340 336.798,156.650 337.340 C 156.960 337.882,157.213 338.148,157.213 337.931 C 157.213 337.714,156.960 337.094,156.650 336.552 C 156.340 336.010,156.087 335.744,156.087 335.961 M263.744 337.385 C 262.401 338.245,261.966 338.823,263.153 338.171 C 264.057 337.674,265.473 336.578,265.222 336.571 C 265.113 336.568,264.448 336.934,263.744 337.385 M183.034 339.744 C 182.474 340.849,182.082 341.819,182.163 341.900 C 182.244 341.981,182.786 341.077,183.367 339.890 C 183.949 338.704,184.341 337.734,184.239 337.734 C 184.136 337.734,183.594 338.638,183.034 339.744 M87.873 340.875 C 88.332 341.518,88.908 342.170,89.154 342.322 C 89.400 342.474,89.105 341.947,88.498 341.151 C 87.180 339.424,86.684 339.204,87.873 340.875 M256.946 341.281 C 256.187 341.696,255.708 342.043,255.882 342.052 C 256.299 342.074,258.522 340.919,258.522 340.680 C 258.522 340.422,258.499 340.430,256.946 341.281 M159.240 342.660 C 159.240 342.877,159.493 343.498,159.803 344.039 C 160.113 344.581,160.366 344.847,160.366 344.631 C 160.366 344.414,160.113 343.793,159.803 343.251 C 159.493 342.709,159.240 342.443,159.240 342.660 M90.419 344.169 C 91.026 344.965,91.602 345.616,91.699 345.616 C 91.973 345.616,90.267 343.310,89.762 342.999 C 89.516 342.847,89.812 343.373,90.419 344.169 M160.427 345.419 C 160.427 345.635,160.767 346.433,161.182 347.192 C 161.598 347.951,161.937 348.394,161.937 348.177 C 161.937 347.961,161.598 347.163,161.182 346.404 C 160.767 345.645,160.427 345.202,160.427 345.419 M92.449 346.798 C 92.841 347.593,98.108 353.835,98.669 354.170 C 98.913 354.316,98.227 353.384,97.143 352.098 C 96.059 350.812,94.876 349.404,94.513 348.969 C 92.758 346.863,92.181 346.257,92.449 346.798 M240.000 347.783 C 237.941 348.508,236.440 349.115,236.665 349.132 C 236.890 349.149,238.841 348.555,241.000 347.813 C 243.160 347.071,244.660 346.464,244.335 346.465 C 244.010 346.465,242.059 347.059,240.000 347.783 M161.970 348.886 C 161.970 349.318,166.666 356.191,167.998 357.708 C 170.273 360.298,172.439 360.844,173.765 359.159 C 174.890 357.728,174.792 357.263,173.614 358.442 C 171.402 360.653,168.707 358.671,163.645 351.108 C 162.724 349.732,161.970 348.732,161.970 348.886 M229.951 350.739 C 229.454 350.952,229.381 351.078,229.754 351.078 C 230.079 351.078,230.700 350.925,231.133 350.739 C 231.630 350.525,231.703 350.400,231.330 350.400 C 231.005 350.400,230.384 350.553,229.951 350.739 M226.404 351.735 C 225.537 352.021,225.182 352.255,225.616 352.255 C 226.049 352.255,227.025 352.016,227.783 351.724 C 229.552 351.043,228.478 351.052,226.404 351.735 M244.138 351.527 C 243.641 351.741,243.568 351.866,243.941 351.866 C 244.266 351.866,244.887 351.713,245.320 351.527 C 245.817 351.314,245.890 351.188,245.517 351.188 C 245.192 351.188,244.571 351.341,244.138 351.527 M222.857 352.709 C 222.360 352.923,222.287 353.048,222.660 353.048 C 222.985 353.048,223.606 352.896,224.039 352.709 C 224.536 352.496,224.609 352.371,224.236 352.371 C 223.911 352.371,223.291 352.523,222.857 352.709 M235.862 354.286 C 235.365 354.499,235.292 354.624,235.665 354.624 C 235.990 354.624,236.611 354.472,237.044 354.286 C 237.541 354.072,237.614 353.947,237.241 353.947 C 236.916 353.947,236.296 354.099,235.862 354.286 M231.330 355.665 C 230.571 355.957,230.217 356.196,230.542 356.196 C 230.867 356.196,231.754 355.957,232.512 355.665 C 233.271 355.373,233.626 355.134,233.300 355.134 C 232.975 355.134,232.089 355.373,231.330 355.665 M210.246 355.862 C 209.242 356.294,210.278 356.294,211.626 355.862 C 212.418 355.608,212.456 355.544,211.823 355.535 C 211.389 355.529,210.680 355.676,210.246 355.862 M200.103 357.717 C 200.593 357.811,201.303 357.808,201.679 357.709 C 202.056 357.611,201.655 357.533,200.788 357.538 C 199.921 357.542,199.613 357.623,200.103 357.717 M196.162 358.111 C 196.652 358.205,197.362 358.202,197.739 358.103 C 198.115 358.005,197.714 357.928,196.847 357.932 C 195.980 357.936,195.672 358.017,196.162 358.111 M189.763 358.666 C 188.467 358.854,187.226 359.085,187.004 359.178 C 186.218 359.507,188.618 359.342,191.921 358.840 C 193.921 358.536,194.635 358.329,193.695 358.326 C 192.828 358.324,191.058 358.477,189.763 358.666 M210.837 360.591 L 209.852 360.907 210.837 360.940 C 211.379 360.958,212.089 360.801,212.414 360.591 C 213.167 360.105,212.356 360.105,210.837 360.591 M106.404 362.365 C 107.139 363.123,107.829 363.744,107.938 363.744 C 108.046 363.744,107.533 363.123,106.798 362.365 C 106.063 361.606,105.372 360.985,105.264 360.985 C 105.156 360.985,105.669 361.606,106.404 362.365 M195.862 363.024 C 194.453 363.219,191.527 363.512,189.360 363.674 L 185.419 363.970 187.159 364.481 C 189.165 365.070,191.344 364.879,196.233 363.686 C 201.113 362.495,201.011 362.311,195.862 363.024 M110.605 366.354 C 111.871 367.572,113.722 369.213,114.720 369.999 C 115.717 370.785,117.313 372.061,118.267 372.834 C 119.754 374.041,123.367 376.315,126.897 378.267 C 128.377 379.085,133.248 381.084,133.749 381.079 C 133.990 381.076,132.857 380.492,131.232 379.780 C 124.046 376.635,116.666 371.675,111.122 366.264 C 109.923 365.095,108.799 364.138,108.623 364.138 C 108.447 364.138,109.339 365.135,110.605 366.354 M135.413 381.658 C 136.087 381.969,137.151 382.324,137.778 382.448 C 138.752 382.640,138.717 382.594,137.537 382.131 C 135.408 381.297,133.904 380.961,135.413 381.658 M144.836 384.001 C 145.708 384.291,147.038 384.634,147.792 384.763 C 149.099 384.988,149.089 384.974,147.578 384.472 C 146.706 384.182,145.376 383.839,144.622 383.709 C 143.315 383.485,143.325 383.499,144.836 384.001 M149.951 385.419 C 150.384 385.605,151.094 385.752,151.527 385.746 C 152.161 385.737,152.122 385.672,151.330 385.419 C 149.983 384.987,148.947 384.987,149.951 385.419 M153.399 386.084 C 153.778 386.184,154.399 386.184,154.778 386.084 C 155.158 385.985,154.847 385.904,154.089 385.904 C 153.330 385.904,153.020 385.985,153.399 386.084 M156.552 386.489 C 157.148 386.579,158.123 386.579,158.719 386.489 C 159.315 386.399,158.828 386.325,157.635 386.325 C 156.443 386.325,155.956 386.399,156.552 386.489 M167.788 386.880 C 168.278 386.974,168.987 386.970,169.364 386.872 C 169.741 386.773,169.340 386.696,168.473 386.700 C 167.606 386.705,167.298 386.785,167.788 386.880 M171.527 387.277 C 172.123 387.368,173.099 387.368,173.695 387.277 C 174.291 387.187,173.803 387.113,172.611 387.113 C 171.419 387.113,170.931 387.187,171.527 387.277 M177.438 387.661 C 177.818 387.760,178.438 387.760,178.818 387.661 C 179.197 387.562,178.887 387.481,178.128 387.481 C 177.369 387.481,177.059 387.562,177.438 387.661 M189.163 388.155 C 195.713 388.412,197.053 388.880,199.615 391.808 C 200.429 392.737,200.857 393.143,200.567 392.709 C 197.877 388.691,195.638 387.771,188.768 387.861 L 183.448 387.930 189.163 388.155 M203.110 396.059 C 204.166 397.251,205.213 398.626,205.436 399.113 C 205.802 399.915,206.502 400.344,206.502 399.767 C 206.502 399.249,204.284 396.564,202.786 395.271 C 201.230 393.927,201.239 393.948,203.110 396.059 " stroke="none" fill="#cf6e8d" fill-rule="evenodd"></path><path id="path6" d="M146.970 6.871 C 131.477 11.258,116.228 17.466,103.448 24.591 L 97.537 27.887 97.273 36.505 C 97.127 41.245,97.016 57.448,97.025 72.512 C 97.044 104.698,97.610 101.821,90.620 105.068 C 89.634 105.526,88.074 106.376,87.154 106.957 C 86.235 107.537,83.229 109.183,80.475 110.614 C 77.721 112.046,74.997 113.546,74.422 113.948 C 73.847 114.351,73.137 114.684,72.846 114.689 C 72.554 114.693,71.872 115.044,71.330 115.468 C 70.788 115.892,70.226 116.243,70.082 116.247 C 69.937 116.252,68.461 117.059,66.801 118.041 C 65.141 119.022,62.156 120.607,60.167 121.564 C 58.179 122.520,54.601 124.343,52.217 125.615 C 32.821 135.961,33.786 134.820,33.866 147.291 C 33.901 152.830,33.781 155.665,33.511 155.665 C 33.011 155.665,32.967 158.122,33.459 158.640 C 33.654 158.846,33.920 161.409,34.049 164.335 C 34.179 167.261,34.389 171.606,34.516 173.990 C 34.645 176.410,34.545 180.154,34.289 182.463 C 34.036 184.739,33.738 187.443,33.626 188.473 C 33.493 189.692,33.572 190.345,33.854 190.345 C 34.091 190.345,34.306 190.744,34.331 191.232 C 34.366 191.899,34.422 191.948,34.557 191.429 C 34.895 190.135,35.862 190.646,35.862 192.118 C 35.862 192.877,36.039 193.498,36.256 193.498 C 36.791 193.498,36.755 195.595,36.198 196.817 C 35.594 198.143,36.510 199.549,37.197 198.350 C 37.422 197.957,37.613 197.369,37.621 197.044 C 37.629 196.719,37.946 196.478,38.325 196.508 C 38.916 196.555,39.015 196.201,39.015 194.051 C 39.015 190.703,39.997 189.591,44.335 188.030 C 46.069 187.406,49.233 186.075,51.366 185.073 C 53.500 184.071,55.302 183.251,55.371 183.251 C 55.440 183.251,56.798 182.644,58.389 181.901 C 59.979 181.158,62.167 180.201,63.251 179.773 C 64.335 179.346,66.818 178.251,68.768 177.340 C 70.719 176.429,73.513 175.250,74.976 174.720 C 80.505 172.717,92.179 166.663,92.207 165.785 C 92.219 165.377,92.979 164.676,94.099 164.039 C 95.145 163.444,95.499 163.412,95.172 163.941 C 94.815 164.520,95.450 164.398,96.355 163.714 C 96.788 163.387,97.143 162.905,97.143 162.644 C 97.143 162.368,98.161 162.005,99.579 161.775 C 100.918 161.557,102.145 161.246,102.304 161.084 C 102.864 160.514,105.222 160.753,105.222 161.379 C 105.222 161.708,105.572 161.970,106.010 161.970 C 106.443 161.970,106.799 161.837,106.801 161.675 C 106.805 161.321,108.713 160.394,109.438 160.394 C 109.720 160.394,109.951 160.217,109.951 160.000 C 109.951 159.783,110.211 159.606,110.528 159.606 C 111.480 159.606,111.921 158.240,111.921 155.297 L 111.921 152.512 113.043 152.512 C 114.148 152.512,114.169 152.469,114.520 149.458 L 114.877 146.404 116.256 146.207 C 117.831 145.982,118.141 144.962,118.197 139.803 C 118.225 137.274,118.273 137.143,119.163 137.143 C 121.229 137.143,122.562 136.660,122.562 135.911 C 122.562 135.435,122.842 135.172,123.350 135.172 C 123.875 135.172,124.138 134.910,124.138 134.384 C 124.138 133.727,124.401 133.596,125.714 133.596 C 127.028 133.596,127.291 133.465,127.291 132.808 C 127.291 132.107,127.553 132.020,129.655 132.020 C 131.757 132.020,132.020 131.932,132.020 131.232 C 132.020 130.575,132.282 130.443,133.596 130.443 C 134.910 130.443,135.172 130.312,135.172 129.655 C 135.172 129.130,135.435 128.867,135.961 128.867 C 136.617 128.867,136.749 128.604,136.749 127.291 L 136.749 125.714 138.325 125.714 C 139.639 125.714,139.901 125.583,139.901 124.926 C 139.901 124.269,140.164 124.138,141.478 124.138 L 143.054 124.138 143.054 122.562 L 143.054 120.985 144.631 120.985 L 146.207 120.985 146.207 122.562 C 146.207 123.429,146.384 124.138,146.601 124.138 C 146.818 124.138,146.995 123.528,146.995 122.782 C 146.995 122.036,146.818 121.316,146.601 121.182 C 145.661 120.601,146.150 117.833,147.192 117.833 C 148.155 117.833,148.178 117.763,148.217 114.778 C 148.325 106.390,148.813 111.258,148.920 121.786 C 149.154 144.874,149.577 140.254,149.878 111.330 C 150.044 95.291,150.256 81.547,150.348 80.788 C 150.500 79.548,150.915 67.662,152.120 30.148 C 152.335 23.429,152.623 15.138,152.760 11.724 C 153.050 4.435,153.688 4.969,146.970 6.871 M148.966 98.194 C 148.966 102.131,148.901 105.279,148.823 105.189 C 148.451 104.759,148.206 91.034,148.570 91.034 C 148.820 91.034,148.966 93.669,148.966 98.194 M149.527 150.542 C 149.527 155.202,149.584 157.108,149.654 154.778 C 149.723 152.448,149.723 148.635,149.654 146.305 C 149.584 143.975,149.527 145.882,149.527 150.542 M39.089 198.227 C 39.080 198.768,39.215 200.010,39.389 200.985 C 39.625 202.315,39.711 202.463,39.731 201.576 C 39.746 200.926,39.611 199.685,39.431 198.818 C 39.227 197.831,39.099 197.610,39.089 198.227 M39.896 204.926 C 39.896 205.468,40.032 206.443,40.197 207.094 C 40.465 208.148,40.498 208.169,40.498 207.291 C 40.498 206.749,40.363 205.773,40.197 205.123 C 39.929 204.069,39.896 204.047,39.896 204.926 M363.459 205.419 C 362.752 206.333,362.513 206.897,362.834 206.893 C 363.009 206.892,363.358 206.448,363.608 205.908 C 364.107 204.834,364.052 204.653,363.459 205.419 M40.864 212.020 C 40.988 213.429,41.155 214.655,41.234 214.745 C 41.519 215.068,41.294 211.409,40.970 210.443 C 40.762 209.826,40.723 210.413,40.864 212.020 M273.103 211.983 C 273.103 212.179,272.217 212.462,271.133 212.611 C 269.831 212.790,269.163 213.070,269.163 213.436 C 269.163 213.836,268.629 213.990,267.241 213.990 C 264.557 213.990,262.857 214.388,262.857 215.017 C 262.857 215.621,261.153 216.172,260.512 215.776 C 260.281 215.633,259.805 215.804,259.454 216.155 C 259.102 216.507,258.562 216.697,258.254 216.579 C 257.945 216.461,257.789 216.520,257.907 216.710 C 258.166 217.130,255.831 218.292,254.758 218.277 C 252.014 218.240,249.458 218.859,249.458 219.563 C 249.458 219.966,249.281 220.296,249.064 220.296 C 248.277 220.296,248.696 221.405,249.754 222.121 C 252.283 223.833,254.039 224.044,255.299 222.786 C 255.586 222.500,256.230 222.266,256.732 222.266 C 257.718 222.266,261.445 221.234,262.556 220.653 C 262.933 220.457,264.121 220.296,265.197 220.296 C 266.637 220.296,267.253 220.117,267.532 219.618 C 267.897 218.966,271.959 218.452,272.772 218.955 C 272.940 219.059,276.675 219.204,281.071 219.277 C 286.618 219.370,289.787 219.597,291.425 220.021 C 292.724 220.356,293.860 220.557,293.951 220.466 C 294.041 220.376,294.387 220.523,294.719 220.792 C 295.201 221.182,295.264 221.181,295.028 220.788 C 294.865 220.517,294.920 220.296,295.149 220.296 C 295.379 220.296,295.567 220.030,295.567 219.704 C 295.567 219.379,295.354 219.113,295.094 219.113 C 294.726 219.113,294.726 219.008,295.094 218.640 C 295.751 217.983,295.685 217.143,294.975 217.143 C 294.647 217.143,294.384 216.793,294.384 216.355 C 294.384 215.720,294.122 215.567,293.031 215.567 C 292.025 215.567,291.615 215.365,291.429 214.778 C 291.234 214.166,290.832 213.990,289.629 213.990 C 288.580 213.990,288.079 213.816,288.079 213.451 C 288.079 212.678,285.962 212.423,279.507 212.418 C 276.029 212.415,273.892 212.264,273.892 212.020 C 273.892 211.803,273.714 211.626,273.498 211.626 C 273.281 211.626,273.103 211.786,273.103 211.983 M41.385 216.979 C 41.389 217.828,41.565 218.788,41.777 219.113 C 42.040 219.517,42.083 219.079,41.912 217.734 C 41.601 215.276,41.377 214.956,41.385 216.979 M42.420 222.266 C 42.534 223.458,42.887 225.675,43.204 227.192 C 43.521 228.709,43.933 230.837,44.120 231.921 C 44.306 233.005,44.638 234.335,44.858 234.877 C 45.077 235.419,45.461 237.015,45.710 238.424 C 46.225 241.339,47.303 245.242,47.530 245.016 C 47.670 244.875,47.140 242.345,45.527 235.468 C 45.171 233.951,44.444 230.581,43.912 227.980 C 42.358 220.389,42.171 219.673,42.420 222.266 M47.505 246.712 C 47.631 247.464,47.835 248.433,47.958 248.867 C 48.080 249.300,48.322 250.985,48.495 252.611 C 48.906 256.466,49.269 258.128,49.700 258.128 C 49.892 258.128,50.049 258.396,50.049 258.725 C 50.049 259.053,50.205 259.629,50.396 260.005 C 50.847 260.896,51.899 264.205,52.368 266.207 C 52.571 267.074,53.193 269.291,53.749 271.133 C 54.306 272.975,54.766 274.867,54.770 275.337 C 54.775 275.806,54.928 276.250,55.112 276.322 C 55.567 276.501,57.931 283.447,57.931 284.606 C 57.931 285.119,58.207 285.933,58.545 286.415 C 58.882 286.897,59.032 287.291,58.878 287.291 C 58.723 287.291,58.861 287.601,59.184 287.980 C 59.947 288.876,60.578 290.617,60.897 292.709 C 61.053 293.729,61.362 294.384,61.686 294.384 C 62.343 294.384,62.657 294.865,62.909 296.258 C 63.016 296.848,63.497 297.864,63.979 298.517 C 65.180 300.147,65.813 301.700,65.813 303.021 C 65.813 303.708,66.385 304.869,67.308 306.057 C 69.087 308.346,69.819 309.914,69.498 310.750 C 69.363 311.101,69.451 311.313,69.705 311.248 C 69.948 311.185,71.097 312.995,72.258 315.271 C 75.714 322.043,77.002 324.335,77.351 324.335 C 77.533 324.335,76.863 322.872,75.863 321.084 C 74.862 319.296,73.417 316.502,72.651 314.877 C 71.885 313.251,70.045 309.438,68.561 306.404 C 67.078 303.369,65.577 300.000,65.226 298.916 C 64.874 297.833,64.182 296.325,63.686 295.567 C 63.191 294.808,62.396 293.123,61.920 291.823 C 61.443 290.522,60.541 288.217,59.915 286.700 C 56.777 279.094,53.480 268.809,52.021 262.069 C 51.763 260.877,51.208 258.897,50.787 257.670 C 50.367 256.443,49.779 254.315,49.481 252.941 C 49.183 251.567,48.727 249.468,48.467 248.276 C 47.934 245.832,47.141 244.542,47.505 246.712 M77.638 324.955 C 77.639 325.156,77.993 325.852,78.424 326.502 C 78.854 327.153,79.208 327.980,79.209 328.342 C 79.211 328.703,79.360 329.057,79.541 329.130 C 79.722 329.202,80.520 330.236,81.313 331.429 C 82.107 332.621,82.890 333.782,83.053 334.010 C 83.402 334.497,84.004 335.521,85.780 338.649 C 86.496 339.911,87.617 341.591,88.270 342.384 C 88.924 343.176,89.458 344.061,89.458 344.350 C 89.458 344.638,89.628 344.769,89.835 344.641 C 90.043 344.513,90.493 344.950,90.836 345.612 C 91.178 346.274,91.888 347.300,92.413 347.891 C 92.937 348.482,94.039 349.745,94.861 350.698 C 97.289 353.514,98.916 355.203,98.916 354.908 C 98.916 354.756,97.654 353.180,96.111 351.405 C 94.569 349.630,93.022 347.734,92.674 347.192 C 92.326 346.650,91.096 345.007,89.941 343.542 C 88.785 342.076,86.996 339.504,85.964 337.827 C 84.933 336.150,83.459 333.803,82.690 332.611 C 81.921 331.419,80.469 329.126,79.464 327.516 C 78.458 325.907,77.637 324.754,77.638 324.955 M102.292 358.225 C 103.595 359.908,105.223 361.547,105.204 361.159 C 105.194 360.955,104.363 359.990,103.358 359.015 C 102.352 358.039,101.872 357.684,102.292 358.225 M110.739 366.700 C 111.474 367.458,112.164 368.079,112.273 368.079 C 112.381 368.079,111.868 367.458,111.133 366.700 C 110.398 365.941,109.707 365.320,109.599 365.320 C 109.491 365.320,110.004 365.941,110.739 366.700 " stroke="none" fill="#fb9a21" fill-rule="evenodd"></path><path id="path7" d="M246.904 6.604 C 246.754 7.198,246.394 9.990,246.104 12.808 C 245.119 22.392,244.315 27.775,243.116 32.829 C 242.457 35.603,241.995 38.086,242.088 38.346 C 242.181 38.605,242.449 38.020,242.683 37.044 L 243.109 35.271 242.998 37.635 C 242.937 38.936,242.679 40.532,242.425 41.182 C 242.171 41.833,241.665 43.429,241.300 44.729 C 240.936 46.030,240.570 46.784,240.487 46.407 C 240.405 46.029,240.722 44.500,241.193 43.009 C 241.663 41.519,241.985 39.975,241.909 39.579 C 241.833 39.183,241.083 41.687,240.243 45.144 C 239.404 48.600,238.207 53.106,237.585 55.157 C 236.410 59.026,236.121 60.724,237.044 58.325 L 237.576 56.946 237.620 58.522 C 237.644 59.389,237.920 61.163,238.234 62.463 C 238.548 63.764,238.808 65.404,238.812 66.108 C 238.817 67.210,238.955 67.389,239.803 67.389 C 240.690 67.389,240.788 67.232,240.788 65.813 C 240.788 64.499,240.920 64.236,241.576 64.236 C 242.233 64.236,242.365 63.974,242.365 62.660 C 242.365 61.367,242.501 61.084,243.123 61.084 C 243.789 61.084,243.908 60.701,244.108 57.931 C 244.233 56.197,244.437 53.360,244.562 51.626 C 244.687 49.892,244.953 48.473,245.153 48.473 C 245.353 48.473,245.517 48.118,245.517 47.685 C 245.517 47.180,245.780 46.897,246.249 46.897 C 246.878 46.897,247.012 46.472,247.210 43.850 C 247.337 42.175,247.629 40.741,247.858 40.665 C 248.088 40.588,248.277 40.319,248.279 40.066 C 248.281 39.813,248.719 38.719,249.252 37.635 C 250.368 35.367,250.498 34.286,249.655 34.286 C 249.327 34.286,249.064 33.935,249.064 33.498 C 249.064 33.060,249.327 32.709,249.655 32.709 C 249.984 32.709,250.246 32.359,250.246 31.921 C 250.246 31.264,250.509 31.133,251.823 31.133 L 253.399 31.133 253.399 29.557 C 253.399 28.243,253.530 27.980,254.187 27.980 C 255.269 27.980,255.186 26.893,254.089 26.682 L 253.202 26.511 254.089 26.458 C 254.695 26.421,254.975 26.155,254.975 25.616 C 254.975 25.090,255.238 24.828,255.764 24.828 C 256.201 24.828,256.552 24.565,256.552 24.236 C 256.552 23.908,256.201 23.645,255.764 23.645 C 255.092 23.645,254.975 23.383,254.975 21.872 L 254.975 20.099 256.552 20.099 C 257.865 20.099,258.128 19.967,258.128 19.310 C 258.128 18.785,258.391 18.522,258.916 18.522 C 259.442 18.522,259.704 18.259,259.704 17.734 C 259.704 17.209,259.967 16.946,260.493 16.946 C 261.018 16.946,261.281 16.683,261.281 16.158 C 261.281 15.579,261.544 15.369,262.271 15.369 C 263.205 15.369,263.246 15.281,263.008 13.793 L 262.756 12.217 265.540 12.217 C 267.071 12.217,268.822 12.405,269.432 12.636 C 270.057 12.871,270.369 12.888,270.148 12.674 C 269.548 12.095,258.531 8.390,253.615 7.114 C 246.751 5.332,247.217 5.367,246.904 6.604 M247.674 7.111 C 247.534 7.337,247.701 7.952,248.045 8.476 C 248.784 9.605,248.876 13.851,248.219 16.552 C 247.982 17.527,247.817 19.076,247.853 19.994 C 247.903 21.279,247.790 21.615,247.367 21.453 C 247.017 21.318,246.879 20.853,246.988 20.177 L 247.160 19.113 246.557 20.200 C 246.089 21.046,246.047 21.551,246.368 22.473 C 246.704 23.437,246.647 23.860,246.064 24.736 C 245.021 26.303,244.935 25.278,245.663 19.978 C 245.996 17.552,246.372 14.414,246.498 13.005 C 246.935 8.110,247.170 6.700,247.548 6.700 C 247.757 6.700,247.814 6.885,247.674 7.111 M258.250 17.229 C 257.174 17.364,256.970 17.568,256.835 18.644 C 256.684 19.854,256.675 19.845,256.615 18.424 C 256.552 16.957,256.563 16.946,258.030 17.009 C 259.451 17.070,259.460 17.078,258.250 17.229 M256.946 21.084 C 256.946 21.409,257.212 21.675,257.537 21.675 C 257.862 21.675,258.128 21.409,258.128 21.084 C 258.128 20.759,257.862 20.493,257.537 20.493 C 257.212 20.493,256.946 20.759,256.946 21.084 M260.099 21.084 C 260.099 21.409,260.365 21.675,260.690 21.675 C 261.015 21.675,261.281 21.409,261.281 21.084 C 261.281 20.759,261.015 20.493,260.690 20.493 C 260.365 20.493,260.099 20.759,260.099 21.084 M319.362 41.084 C 318.006 43.385,317.917 43.582,318.608 42.759 C 319.408 41.805,320.098 40.591,319.840 40.591 C 319.737 40.591,319.522 40.813,319.362 41.084 M316.431 45.616 C 314.596 48.148,314.165 48.965,315.530 47.324 C 316.800 45.799,318.187 43.744,317.947 43.744 C 317.859 43.744,317.177 44.586,316.431 45.616 M239.872 50.912 C 238.963 52.750,238.781 52.811,239.205 51.133 C 239.384 50.429,239.661 49.320,239.821 48.670 C 240.109 47.504,240.117 47.501,240.364 48.449 C 240.520 49.047,240.335 49.978,239.872 50.912 M313.300 50.049 C 312.837 50.700,312.547 51.232,312.656 51.232 C 312.764 51.232,313.232 50.700,313.695 50.049 C 314.158 49.399,314.448 48.867,314.339 48.867 C 314.231 48.867,313.764 49.399,313.300 50.049 M310.690 53.892 C 308.945 56.389,308.225 57.577,308.839 56.946 C 309.717 56.044,312.687 51.626,312.416 51.626 C 312.338 51.626,311.561 52.645,310.690 53.892 M244.426 59.507 C 244.426 60.266,244.508 60.576,244.607 60.197 C 244.706 59.818,244.706 59.197,244.607 58.818 C 244.508 58.438,244.426 58.749,244.426 59.507 M324.138 72.519 C 317.562 73.158,311.501 74.639,305.025 77.190 L 302.069 78.354 304.094 78.351 C 305.207 78.350,306.449 78.522,306.852 78.734 C 307.256 78.947,308.384 79.247,309.360 79.401 C 310.335 79.555,311.551 79.947,312.062 80.272 C 312.740 80.703,313.108 80.744,313.427 80.426 C 313.850 80.002,316.453 82.410,316.453 83.224 C 316.453 83.402,316.621 83.547,316.827 83.547 C 317.358 83.547,319.025 85.190,319.327 86.010 C 319.467 86.389,319.853 86.700,320.185 86.700 C 320.517 86.700,320.788 86.860,320.788 87.056 C 320.788 87.575,324.178 89.740,325.856 90.292 C 326.645 90.552,328.132 91.343,329.161 92.050 C 330.189 92.757,331.608 93.460,332.313 93.612 C 333.019 93.764,334.039 94.381,334.581 94.983 C 336.891 97.550,338.522 97.192,338.522 94.118 C 338.522 92.868,338.687 92.494,339.310 92.331 C 339.744 92.218,340.099 91.879,340.099 91.580 C 340.099 91.280,340.276 91.034,340.493 91.034 C 340.712 91.034,340.887 89.984,340.887 88.670 C 340.887 87.356,341.062 86.305,341.281 86.305 C 341.498 86.305,341.675 85.607,341.675 84.753 C 341.675 83.243,341.716 83.197,343.153 83.078 C 344.593 82.959,345.847 80.000,344.457 80.000 C 344.227 80.000,344.039 79.823,344.039 79.606 C 344.039 79.389,344.324 79.212,344.672 79.212 C 345.020 79.212,345.640 78.786,346.049 78.267 C 347.710 76.155,353.691 75.933,357.461 77.844 L 359.603 78.929 358.222 77.256 C 355.023 73.382,338.664 71.108,324.138 72.519 M240.788 85.123 C 240.788 85.340,240.159 85.517,239.391 85.517 C 237.897 85.517,236.059 86.921,236.059 88.061 C 236.059 88.833,236.607 88.843,237.238 88.083 C 237.550 87.707,238.070 87.582,238.682 87.735 C 239.264 87.881,239.901 87.749,240.311 87.397 C 240.682 87.079,241.296 86.709,241.675 86.575 C 242.658 86.226,242.578 84.729,241.576 84.729 C 241.143 84.729,240.788 84.906,240.788 85.123 M334.953 99.728 C 336.607 100.478,338.678 102.174,342.941 106.269 C 351.767 114.747,346.330 139.703,329.953 165.885 C 328.132 168.797,326.896 170.968,327.208 170.709 C 327.519 170.451,328.445 169.132,329.264 167.780 C 330.083 166.427,331.322 164.433,332.016 163.350 C 333.287 161.365,337.684 153.154,339.825 148.768 C 348.672 130.637,350.020 112.809,343.095 105.495 C 342.314 104.670,341.675 103.844,341.675 103.659 C 341.675 103.473,340.874 102.934,339.895 102.460 C 338.916 101.986,337.934 101.260,337.713 100.848 C 337.296 100.069,334.963 98.910,333.843 98.925 C 333.491 98.930,333.990 99.291,334.953 99.728 M316.635 183.350 L 314.680 185.419 316.749 183.463 C 318.671 181.646,318.998 181.281,318.704 181.281 C 318.642 181.281,317.711 182.212,316.635 183.350 M277.537 203.637 C 278.350 203.722,279.680 203.722,280.493 203.637 C 281.305 203.552,280.640 203.482,279.015 203.482 C 277.389 203.482,276.724 203.552,277.537 203.637 M248.229 229.657 C 247.227 230.902,246.012 232.719,245.529 233.695 C 244.656 235.457,242.436 238.911,235.145 249.852 C 229.985 257.595,229.348 258.505,224.914 264.474 C 222.794 267.328,221.134 269.738,221.226 269.830 C 221.839 270.444,240.814 242.829,245.463 234.556 C 246.353 232.971,247.678 230.931,248.406 230.024 C 249.745 228.355,250.394 227.388,250.171 227.391 C 250.104 227.391,249.230 228.411,248.229 229.657 M245.937 230.647 C 244.815 232.031,244.771 232.147,245.678 231.330 C 246.621 230.481,247.740 228.951,247.403 228.973 C 247.341 228.977,246.682 229.730,245.937 230.647 M219.029 272.779 C 213.934 280.121,212.121 282.956,212.523 282.956 C 212.594 282.956,213.609 281.493,214.778 279.704 C 215.948 277.916,217.204 276.099,217.571 275.665 C 218.495 274.573,221.152 270.345,220.913 270.345 C 220.807 270.345,219.959 271.440,219.029 272.779 M258.719 346.976 C 257.852 347.234,256.877 347.558,256.552 347.696 C 256.227 347.834,254.816 348.235,253.416 348.587 C 252.017 348.938,250.387 349.477,249.794 349.784 C 248.582 350.411,231.813 355.881,228.768 356.643 C 226.708 357.159,223.949 357.783,219.310 358.783 C 217.793 359.110,215.576 359.663,214.384 360.012 C 211.775 360.776,207.559 361.624,202.759 362.352 C 200.808 362.648,197.793 363.245,196.059 363.680 C 194.325 364.114,192.552 364.551,192.118 364.652 C 189.454 365.270,193.682 364.798,198.261 363.966 C 201.168 363.438,204.966 362.806,206.700 362.560 C 212.411 361.751,229.023 357.841,232.878 356.399 C 234.271 355.877,236.665 355.115,238.198 354.705 C 239.731 354.295,243.202 353.126,245.911 352.107 C 248.621 351.088,253.031 349.485,255.712 348.545 C 258.393 347.604,260.684 346.738,260.802 346.620 C 261.090 346.332,260.606 346.414,258.719 346.976 " stroke="none" fill="#b968b2" fill-rule="evenodd"></path></g></svg>